<svg id="svg" version="1.1" xmlns="http://www.w3.org/2000/svg" xmlns:xlink="http://www.w3.org/1999/xlink" width="400" height="360" viewBox="0 0 400 360">
    <g id="svgg">
        <path id="path0" d="M198.020 4.524 C 197.327 4.597,194.977 4.834,192.799 5.050 C 184.801 5.843,182.300 6.145,179.658 6.632 C 178.173 6.907,175.743 7.327,174.257 7.567 C 172.772 7.807,170.421 8.307,169.032 8.677 C 167.642 9.048,165.779 9.500,164.891 9.682 C 164.003 9.864,162.304 10.288,161.116 10.623 C 159.928 10.959,158.146 11.450,157.156 11.714 C 155.251 12.221,149.126 14.369,144.914 16.006 C 143.528 16.544,141.341 17.354,140.054 17.805 C 131.201 20.907,111.578 32.223,101.890 39.814 C 100.999 40.513,99.221 41.906,97.938 42.911 C 85.188 52.899,69.508 70.001,62.153 81.943 C 61.067 83.706,59.827 85.598,59.397 86.148 C 57.046 89.155,46.085 110.312,46.085 111.843 C 46.085 112.062,45.542 113.436,44.879 114.897 C 42.805 119.464,38.096 134.389,37.437 138.482 C 37.242 139.696,36.847 141.354,36.561 142.166 C 36.274 142.979,35.864 144.982,35.650 146.619 C 35.435 148.256,34.956 151.296,34.585 153.375 C 32.433 165.420,31.997 190.031,33.777 198.920 C 34.213 201.098,34.822 204.824,35.131 207.201 C 36.308 216.257,40.863 232.846,44.721 242.124 C 45.297 243.510,46.256 245.834,46.852 247.287 C 47.447 248.741,48.247 250.442,48.629 251.068 C 49.010 251.693,49.323 252.429,49.324 252.702 C 49.325 253.301,55.389 264.794,57.040 267.327 C 57.685 268.317,58.832 270.180,59.588 271.467 C 60.344 272.754,61.868 275.022,62.974 276.506 C 64.081 277.991,65.569 280.097,66.281 281.187 C 71.788 289.620,89.661 308.342,97.961 314.372 C 98.688 314.901,99.748 316.021,100.317 316.862 C 101.368 318.416,102.382 319.212,109.091 323.743 C 115.927 328.360,125.584 333.960,130.333 336.063 C 131.620 336.633,133.807 337.637,135.194 338.294 C 150.974 345.780,173.979 351.745,192.799 353.229 C 203.832 354.100,222.412 353.629,231.143 352.259 C 233.024 351.964,235.536 351.576,236.724 351.397 C 242.088 350.590,251.391 348.356,259.946 345.821 C 263.860 344.660,276.028 340.155,277.855 339.189 C 278.203 339.005,281.080 337.604,284.248 336.075 C 296.778 330.030,313.052 319.636,314.537 316.730 C 314.863 316.093,315.371 315.430,315.667 315.257 C 318.590 313.552,333.372 299.708,337.061 295.223 C 337.791 294.336,339.236 292.718,340.272 291.629 C 344.186 287.516,352.203 276.485,356.600 269.163 C 366.219 253.147,372.430 238.610,376.226 223.222 C 376.592 221.737,377.325 218.821,377.854 216.742 C 378.973 212.343,379.608 208.820,380.564 201.705 C 380.943 198.880,381.407 195.964,381.595 195.224 C 382.553 191.455,382.349 166.227,381.313 160.355 C 381.107 159.190,380.684 156.454,380.373 154.275 C 379.539 148.438,377.734 138.987,376.935 136.274 C 376.760 135.680,376.281 133.978,375.869 132.493 C 371.465 116.597,362.227 95.464,356.039 87.129 C 355.672 86.634,354.800 85.171,354.101 83.879 C 353.403 82.587,352.184 80.747,351.393 79.790 C 350.602 78.833,349.955 77.942,349.955 77.812 C 349.955 76.552,335.873 60.128,330.025 54.567 C 317.737 42.884,308.344 35.720,294.961 27.825 C 291.282 25.655,280.771 20.297,279.208 19.795 C 278.416 19.541,277.444 19.130,277.048 18.883 C 274.861 17.517,259.409 11.995,254.365 10.777 C 252.781 10.394,250.027 9.675,248.245 9.178 C 244.427 8.113,234.115 6.306,228.677 5.749 C 226.568 5.532,223.951 5.187,222.862 4.981 C 220.963 4.621,200.625 4.247,198.020 4.524 M220.972 102.756 C 240.205 107.079,256.663 120.207,265.118 137.968 C 266.848 141.603,267.106 142.890,266.234 143.528 C 265.382 144.151,149.831 144.263,148.671 143.642 C 146.924 142.706,150.922 134.280,157.036 126.013 C 170.765 107.447,197.913 97.572,220.972 102.756 M147.615 144.554 C 149.870 145.350,265.395 145.350,266.787 144.554 C 268.164 143.767,283.220 143.784,284.348 144.575 C 285.760 145.564,285.554 153.486,284.068 155.356 C 283.216 156.428,282.988 157.070,282.988 158.397 C 282.988 160.808,282.437 161.375,279.892 161.576 C 277.236 161.786,276.868 162.084,276.868 164.017 C 276.868 166.944,276.472 167.417,274.022 167.417 C 271.380 167.417,270.747 167.939,270.747 170.117 C 270.747 172.962,271.688 172.818,253.170 172.812 C 234.739 172.806,235.985 172.989,235.641 170.228 C 235.316 167.617,234.642 166.986,231.948 166.768 C 229.554 166.574,229.356 166.373,229.348 164.126 C 229.340 161.601,228.516 160.803,225.686 160.578 L 223.402 160.396 223.222 155.055 C 222.988 148.108,223.017 148.130,214.432 148.432 C 208.779 148.631,208.823 148.583,208.816 154.585 C 208.809 160.353,208.740 160.576,206.967 160.576 C 203.745 160.576,202.814 161.500,202.615 164.896 L 202.520 166.517 200.360 166.742 C 196.789 167.115,196.682 167.228,196.494 170.837 L 196.400 172.637 176.438 172.637 L 156.476 172.637 156.078 170.207 C 155.585 167.195,155.391 167.002,152.584 166.734 L 150.315 166.517 150.106 164.330 C 149.810 161.240,148.346 160.156,145.253 160.736 C 143.616 161.043,142.934 160.261,142.934 158.074 C 142.934 155.962,142.622 155.691,139.874 155.421 C 136.694 155.110,136.434 154.660,136.480 149.549 C 136.529 144.150,136.670 144.014,142.218 144.014 C 144.734 144.014,146.618 144.203,147.615 144.554 M148.816 149.101 C 147.871 149.582,147.626 150.400,147.620 153.105 C 147.613 156.086,148.637 156.940,151.876 156.653 C 153.252 156.531,153.735 157.236,153.735 159.360 C 153.735 162.173,154.640 162.941,158.236 163.180 L 159.676 163.276 159.860 165.257 C 160.156 168.443,161.459 169.449,164.840 169.101 C 167.369 168.840,167.833 168.334,168.099 165.551 L 168.317 163.276 169.924 163.162 C 171.844 163.025,172.569 163.723,172.268 165.419 C 171.819 167.950,174.156 169.614,177.428 169.093 C 181.757 168.404,181.665 160.936,177.327 160.936 C 174.407 160.936,174.257 160.814,174.257 158.446 C 174.257 155.525,173.789 155.036,170.776 154.815 L 168.317 154.635 168.137 152.222 C 167.909 149.171,167.634 148.918,164.367 148.753 C 160.848 148.575,159.856 149.382,159.856 152.420 C 159.856 154.572,159.619 154.815,157.525 154.815 C 156.114 154.815,155.896 154.407,155.896 151.770 C 155.896 150.442,155.716 149.714,155.306 149.373 C 154.563 148.758,149.880 148.561,148.816 149.101 M228.443 149.125 C 227.327 149.758,227.194 150.140,227.188 152.745 C 227.181 155.899,227.794 156.613,230.513 156.621 C 233.026 156.629,233.184 156.783,233.371 159.417 C 233.577 162.336,234.098 162.862,237.006 163.096 L 239.244 163.276 239.458 165.512 C 239.727 168.323,240.095 168.754,242.480 169.052 C 246.067 169.500,247.705 168.440,247.705 165.670 C 247.705 163.450,247.959 163.096,249.552 163.096 C 251.164 163.096,251.665 163.865,251.665 166.334 C 251.665 168.562,252.949 169.354,256.137 169.093 C 259.480 168.819,259.766 168.488,259.766 164.902 C 259.766 161.416,259.559 161.170,256.418 160.936 L 254.005 160.756 253.825 158.343 C 253.605 155.385,253.322 155.083,250.585 154.885 C 248.046 154.702,247.945 154.592,247.706 151.764 C 247.485 149.138,246.875 148.708,243.363 148.700 C 240.101 148.693,239.650 149.091,239.424 152.176 L 239.244 154.635 237.444 154.635 L 235.644 154.635 235.537 152.398 C 235.378 149.076,231.602 147.334,228.443 149.125 M154.375 149.975 C 155.059 150.454,155.176 150.868,155.176 152.817 C 155.176 155.434,155.289 155.536,158.193 155.536 C 160.574 155.536,160.936 155.149,160.936 152.609 C 160.936 149.764,161.456 149.295,164.406 149.483 C 167.218 149.662,167.198 149.641,167.417 152.774 L 167.597 155.356 170.221 155.536 C 173.329 155.749,173.524 155.953,173.532 159.007 C 173.538 161.576,173.637 161.656,176.816 161.656 C 179.256 161.656,179.658 162.132,179.658 165.020 C 179.658 167.430,178.934 168.137,176.466 168.137 C 173.698 168.137,173.281 167.743,173.097 164.958 C 172.922 162.301,172.645 162.029,170.099 162.022 C 167.782 162.015,167.417 162.413,167.417 164.948 C 167.417 167.483,166.723 168.137,164.035 168.137 C 161.630 168.137,160.936 167.474,160.936 165.177 C 160.936 162.433,160.563 162.016,158.112 162.016 C 155.162 162.016,154.676 161.554,154.455 158.535 L 154.275 156.076 151.862 155.896 C 148.880 155.673,148.679 155.475,148.601 152.674 C 148.515 149.567,151.681 148.088,154.375 149.975 M221.942 150.215 C 222.383 150.845,222.502 152.067,222.502 155.954 C 222.502 161.497,222.411 161.316,225.281 161.489 C 227.799 161.641,228.250 162.095,228.517 164.749 C 228.761 167.173,228.971 167.402,230.963 167.416 C 233.944 167.438,234.743 168.289,234.743 171.440 C 234.743 173.538,234.739 173.537,252.905 173.537 C 271.348 173.537,270.284 173.362,269.913 176.334 C 268.152 190.410,256.383 208.182,242.844 217.210 C 207.061 241.069,157.988 223.086,146.260 181.818 C 143.957 173.714,143.018 163.593,144.436 162.164 C 146.364 160.223,148.984 161.697,149.340 164.924 L 149.595 167.237 151.831 167.451 C 154.681 167.723,155.176 168.139,155.176 170.261 C 155.176 171.195,155.424 172.291,155.736 172.737 L 156.296 173.537 176.366 173.537 C 198.755 173.537,197.300 173.726,197.300 170.821 C 197.300 168.442,198.043 167.700,200.556 167.572 C 202.944 167.450,203.420 167.004,203.420 164.892 C 203.420 162.425,204.219 161.574,206.671 161.427 C 209.552 161.255,209.655 161.051,209.690 155.429 C 209.731 149.053,209.348 149.415,216.045 149.415 C 221.151 149.415,221.405 149.449,221.942 150.215 M233.854 149.918 C 234.404 150.320,234.534 150.842,234.504 152.528 C 234.457 155.233,234.732 155.536,237.236 155.536 C 239.791 155.536,240.144 155.179,240.144 152.604 C 240.144 150.037,240.827 149.415,243.644 149.415 C 246.289 149.415,246.985 150.156,246.985 152.973 C 246.985 155.347,247.195 155.521,250.066 155.531 C 252.306 155.538,252.845 156.135,253.035 158.818 C 253.226 161.514,253.364 161.643,256.055 161.651 C 259.083 161.659,260.628 165.294,258.506 167.417 C 256.333 169.590,252.385 168.014,252.385 164.973 C 252.385 162.495,251.958 162.016,249.744 162.016 C 247.372 162.016,246.985 162.405,246.985 164.788 C 246.985 167.376,246.226 168.137,243.644 168.137 C 240.827 168.137,240.144 167.515,240.144 164.948 C 240.144 162.374,239.790 162.016,237.248 162.016 C 234.586 162.016,234.097 161.481,233.953 158.409 L 233.843 156.076 231.510 155.966 C 228.497 155.825,227.903 155.313,227.903 152.860 C 227.903 149.689,231.267 148.026,233.854 149.918 M161.647 156.819 C 160.989 158.551,161.207 160.863,162.074 161.327 C 162.785 161.707,166.175 161.577,166.600 161.153 C 167.060 160.692,166.835 156.563,166.331 156.245 C 165.082 155.455,162.023 155.830,161.647 156.819 M241.314 156.134 C 240.409 156.499,240.727 161.175,241.674 161.429 C 243.040 161.795,245.377 161.680,245.833 161.224 C 246.511 160.546,246.399 156.384,245.695 156.114 C 245.026 155.857,241.965 155.871,241.314 156.134 M165.429 157.106 C 166.007 157.528,166.053 157.816,165.767 159.176 L 165.433 160.756 163.815 160.756 L 162.196 160.756 162.221 159.018 C 162.253 156.719,163.711 155.850,165.429 157.106 M245.172 157.312 C 245.754 158.400,245.635 160.464,244.975 160.718 C 243.006 161.473,241.584 160.805,241.584 159.123 C 241.584 156.856,244.216 155.527,245.172 157.312 M215.662 247.692 C 227.194 248.746,238.347 250.977,244.744 253.509 C 246.185 254.079,247.590 254.545,247.866 254.545 C 248.928 254.545,260.342 259.649,264.805 262.119 C 284.434 272.983,300.752 289.465,310.539 308.313 C 315.039 316.980,315.328 316.264,304.410 323.476 C 279.591 339.870,256.003 348.289,223.942 352.193 C 217.236 353.009,196.290 352.795,188.299 351.828 C 157.334 348.082,130.663 337.956,106.285 320.689 C 100.103 316.311,100.108 316.333,103.664 309.476 C 124.628 269.056,170.788 243.591,215.662 247.692 " stroke="none" fill="#44444b" fill-rule="evenodd"></path>
        <path id="path1" d="M203.600 103.221 C 185.699 104.836,167.293 114.262,159.363 125.876 C 158.941 126.495,157.937 127.872,157.131 128.937 C 155.436 131.176,152.319 136.416,151.588 138.254 C 151.313 138.947,150.873 139.834,150.611 140.224 C 150.349 140.615,150.135 141.384,150.135 141.934 L 150.135 142.934 207.392 142.934 C 255.993 142.934,264.678 142.858,264.841 142.433 C 265.028 141.946,264.527 140.799,261.834 135.554 C 258.202 128.480,251.138 120.213,245.365 116.282 C 244.374 115.608,243.078 114.628,242.484 114.104 C 241.000 112.796,234.882 109.291,233.123 108.741 C 232.331 108.493,231.359 108.091,230.963 107.846 C 226.473 105.076,211.360 102.521,203.600 103.221 M150.135 150.487 C 149.771 150.718,149.595 151.424,149.595 152.655 C 149.595 154.836,150.022 155.221,152.295 155.089 L 153.915 154.995 154.025 153.076 C 154.179 150.397,152.278 149.133,150.135 150.487 M162.029 150.831 C 160.834 153.064,161.790 155.176,163.996 155.176 C 164.808 155.176,165.667 154.981,165.905 154.743 C 166.465 154.183,166.465 151.127,165.905 150.567 C 165.175 149.837,162.462 150.022,162.029 150.831 M229.125 151.042 C 227.677 153.253,228.928 155.232,231.683 155.089 L 233.483 154.995 233.593 153.076 C 233.765 150.075,230.679 148.670,229.125 151.042 M241.854 150.524 C 240.992 151.026,240.943 154.630,241.794 154.957 C 244.243 155.897,245.905 154.967,245.905 152.655 C 245.905 150.292,243.986 149.282,241.854 150.524 M211.221 150.735 C 211.089 150.867,210.981 153.044,210.981 155.572 C 210.981 161.836,210.193 163.161,206.842 162.533 C 205.291 162.242,204.686 163.049,204.783 165.282 C 204.890 167.727,203.697 168.857,201.012 168.857 C 198.829 168.857,198.369 169.345,198.641 171.372 C 198.779 172.399,198.631 172.902,197.968 173.666 L 197.120 174.646 178.218 174.645 C 167.822 174.645,158.464 174.639,157.422 174.631 C 155.001 174.614,154.341 173.913,154.095 171.100 L 153.915 169.037 151.919 168.857 C 149.900 168.675,148.003 167.769,147.941 166.958 C 147.923 166.715,147.934 165.851,147.966 165.036 C 148.065 162.484,146.134 161.544,145.618 163.893 C 145.339 165.164,145.659 169.791,146.348 174.437 C 149.524 195.841,166.178 215.639,186.870 222.606 C 195.525 225.520,208.712 227.018,214.941 225.794 C 225.062 223.805,227.737 223.031,233.122 220.532 C 245.782 214.656,256.058 204.891,262.304 192.799 C 264.544 188.464,265.142 186.924,266.988 180.738 C 268.364 176.124,268.479 175.151,267.679 174.844 C 267.377 174.728,260.022 174.645,251.335 174.659 C 240.366 174.676,235.311 174.561,234.790 174.282 C 233.793 173.749,233.210 172.598,233.490 171.715 C 234.052 169.947,233.361 168.857,231.678 168.857 C 228.452 168.857,227.559 168.118,227.543 165.437 C 227.528 163.017,227.362 162.855,224.704 162.666 C 221.517 162.440,221.422 162.258,221.422 156.396 C 221.422 149.967,221.887 150.495,216.223 150.495 C 213.604 150.495,211.353 150.603,211.221 150.735 M155.968 156.688 C 155.229 157.427,155.420 160.489,156.232 160.923 C 158.401 162.084,160.576 161.009,160.576 158.776 C 160.576 156.572,157.485 155.171,155.968 156.688 M168.207 156.565 C 167.885 156.769,167.772 157.532,167.847 158.989 L 167.957 161.116 169.804 161.223 C 172.076 161.355,172.817 160.753,172.817 158.776 C 172.817 156.609,170.152 155.331,168.207 156.565 M235.554 156.494 C 234.908 156.754,234.959 160.368,235.616 160.913 C 235.902 161.151,236.893 161.289,237.866 161.227 L 239.604 161.116 239.711 159.269 C 239.863 156.662,238.082 155.474,235.554 156.494 M247.777 156.688 C 247.539 156.925,247.345 157.865,247.345 158.776 C 247.345 160.815,247.791 161.296,249.685 161.296 C 251.931 161.296,252.663 159.780,251.674 157.179 C 251.283 156.150,248.647 155.818,247.777 156.688 M162.029 163.073 C 161.564 163.941,161.539 166.582,161.993 166.862 C 164.839 168.622,168.041 165.403,165.950 162.884 C 165.286 162.084,162.486 162.218,162.029 163.073 M174.688 162.736 C 173.950 163.049,173.871 163.294,173.968 164.982 L 174.077 166.877 176.328 166.984 L 178.578 167.091 178.635 165.724 C 178.702 164.122,178.620 163.018,178.420 162.818 C 178.076 162.475,175.443 162.417,174.688 162.736 M241.607 162.888 C 239.887 164.961,242.031 167.809,244.765 167.083 C 246.003 166.755,246.410 163.636,245.319 162.838 C 244.472 162.219,242.137 162.250,241.607 162.888 M253.897 162.808 C 253.338 163.368,253.335 166.574,253.894 166.919 C 254.549 167.324,257.553 167.072,257.862 166.586 C 259.414 164.144,255.905 160.801,253.897 162.808 M198.295 249.509 C 196.368 249.682,193.330 250.077,191.544 250.385 C 189.759 250.693,187.840 250.945,187.280 250.945 C 186.080 250.945,173.318 254.086,172.294 254.633 C 171.907 254.840,170.854 255.217,169.954 255.471 C 153.423 260.137,130.271 275.443,119.892 288.569 C 119.001 289.696,117.535 291.453,116.635 292.474 C 115.734 293.494,114.725 294.734,114.391 295.230 C 110.891 300.426,108.996 303.371,108.533 304.334 C 108.228 304.970,107.421 306.463,106.740 307.651 C 103.275 313.699,102.437 315.752,103.087 316.600 C 104.180 318.024,116.218 325.994,122.052 329.155 C 127.222 331.956,132.128 334.433,135.374 335.882 C 137.255 336.721,139.673 337.820,140.748 338.323 C 143.099 339.425,146.836 340.858,149.055 341.508 C 149.946 341.769,152.376 342.567,154.455 343.280 C 164.416 346.696,180.381 349.929,190.999 350.681 C 193.375 350.849,196.692 351.159,198.370 351.371 C 207.196 352.483,226.875 351.085,240.684 348.365 C 246.601 347.200,247.112 347.075,256.346 344.547 C 260.341 343.453,269.671 340.173,273.987 338.344 C 285.881 333.306,294.916 328.434,304.365 321.962 C 306.172 320.724,308.491 319.153,309.518 318.470 C 312.542 316.461,312.542 316.503,309.648 310.623 C 306.501 304.228,304.255 300.670,297.930 292.060 C 295.810 289.175,286.444 279.728,281.908 275.900 C 272.356 267.838,257.456 259.386,247.165 256.192 C 245.383 255.639,243.195 254.874,242.304 254.493 C 241.413 254.112,239.874 253.664,238.884 253.499 C 237.894 253.334,235.486 252.763,233.532 252.231 C 231.579 251.700,228.744 251.116,227.232 250.935 C 225.720 250.754,222.943 250.357,221.062 250.053 C 216.945 249.386,203.271 249.060,198.295 249.509 " stroke="none" fill="#d2d2d2" fill-rule="evenodd"></path>
        <path id="path2" d="M0.000 180.018 L 0.000 360.036 200.000 360.036 L 400.000 360.036 400.000 180.018 L 400.000 0.000 200.000 0.000 L 0.000 0.000 0.000 180.018 M222.862 4.981 C 223.951 5.187,226.568 5.532,228.677 5.749 C 234.115 6.306,244.427 8.113,248.245 9.178 C 250.027 9.675,252.781 10.394,254.365 10.777 C 259.409 11.995,274.861 17.517,277.048 18.883 C 277.444 19.130,278.416 19.541,279.208 19.795 C 280.771 20.297,291.282 25.655,294.961 27.825 C 308.344 35.720,317.737 42.884,330.025 54.567 C 335.873 60.128,349.955 76.552,349.955 77.812 C 349.955 77.942,350.602 78.833,351.393 79.790 C 352.184 80.747,353.403 82.587,354.101 83.879 C 354.800 85.171,355.672 86.634,356.039 87.129 C 362.227 95.464,371.465 116.597,375.869 132.493 C 376.281 133.978,376.760 135.680,376.935 136.274 C 377.734 138.987,379.539 148.438,380.373 154.275 C 380.684 156.454,381.107 159.190,381.313 160.355 C 382.349 166.227,382.553 191.455,381.595 195.224 C 381.407 195.964,380.943 198.880,380.564 201.705 C 379.608 208.820,378.973 212.343,377.854 216.742 C 377.325 218.821,376.592 221.737,376.226 223.222 C 372.754 237.295,367.479 250.127,359.043 265.023 C 353.969 273.982,345.093 286.562,340.272 291.629 C 339.236 292.718,337.791 294.336,337.061 295.223 C 333.372 299.708,318.590 313.552,315.667 315.257 C 315.371 315.430,314.863 316.093,314.537 316.730 C 313.052 319.636,296.778 330.030,284.248 336.075 C 281.080 337.604,278.203 339.005,277.855 339.189 C 276.028 340.155,263.860 344.660,259.946 345.821 C 251.391 348.356,242.088 350.590,236.724 351.397 C 235.536 351.576,233.024 351.964,231.143 352.259 C 222.412 353.629,203.832 354.100,192.799 353.229 C 173.979 351.745,150.974 345.780,135.194 338.294 C 133.807 337.637,131.620 336.633,130.333 336.063 C 125.584 333.960,115.927 328.360,109.091 323.743 C 102.382 319.212,101.368 318.416,100.317 316.862 C 99.748 316.021,98.688 314.901,97.961 314.372 C 89.661 308.342,71.788 289.620,66.281 281.187 C 65.569 280.097,64.081 277.991,62.974 276.506 C 61.868 275.022,60.344 272.754,59.588 271.467 C 58.832 270.180,57.685 268.317,57.040 267.327 C 55.389 264.794,49.325 253.301,49.324 252.702 C 49.323 252.429,49.010 251.693,48.629 251.068 C 48.247 250.442,47.447 248.741,46.852 247.287 C 46.256 245.834,45.297 243.510,44.721 242.124 C 40.863 232.846,36.308 216.257,35.131 207.201 C 34.822 204.824,34.213 201.098,33.777 198.920 C 31.997 190.031,32.433 165.420,34.585 153.375 C 34.956 151.296,35.435 148.256,35.650 146.619 C 35.864 144.982,36.274 142.979,36.561 142.166 C 36.847 141.354,37.242 139.696,37.437 138.482 C 38.096 134.389,42.805 119.464,44.879 114.897 C 45.542 113.436,46.085 112.062,46.085 111.843 C 46.085 110.312,57.046 89.155,59.397 86.148 C 59.827 85.598,61.067 83.706,62.153 81.943 C 69.508 70.001,85.188 52.899,97.938 42.911 C 99.221 41.906,100.999 40.513,101.890 39.814 C 111.578 32.223,131.201 20.907,140.054 17.805 C 141.341 17.354,143.528 16.544,144.914 16.006 C 149.126 14.369,155.251 12.221,157.156 11.714 C 158.146 11.450,159.928 10.959,161.116 10.623 C 162.304 10.288,164.003 9.864,164.891 9.682 C 165.779 9.500,167.642 9.048,169.032 8.677 C 170.421 8.307,172.772 7.807,174.257 7.567 C 175.743 7.327,178.173 6.907,179.658 6.632 C 182.300 6.145,184.801 5.843,192.799 5.050 C 194.977 4.834,197.327 4.597,198.020 4.524 C 200.625 4.247,220.963 4.621,222.862 4.981 M137.434 144.735 C 136.553 145.429,136.516 145.613,136.480 149.549 C 136.434 154.660,136.694 155.110,139.874 155.421 C 142.622 155.691,142.934 155.962,142.934 158.074 C 142.934 160.261,143.616 161.043,145.253 160.736 C 148.346 160.156,149.810 161.240,150.106 164.330 L 150.315 166.517 152.584 166.734 C 155.391 167.002,155.585 167.195,156.078 170.207 L 156.476 172.637 176.438 172.637 L 196.400 172.637 196.494 170.837 C 196.682 167.228,196.789 167.115,200.360 166.742 L 202.520 166.517 202.615 164.896 C 202.814 161.500,203.745 160.576,206.967 160.576 C 208.740 160.576,208.809 160.353,208.816 154.585 C 208.823 148.583,208.779 148.631,214.432 148.432 C 223.017 148.130,222.988 148.108,223.222 155.055 L 223.402 160.396 225.686 160.578 C 228.516 160.803,229.340 161.601,229.348 164.126 C 229.356 166.373,229.554 166.574,231.948 166.768 C 234.642 166.986,235.316 167.617,235.641 170.228 C 235.985 172.989,234.739 172.806,253.170 172.812 C 271.688 172.818,270.747 172.962,270.747 170.117 C 270.747 167.939,271.380 167.417,274.022 167.417 C 276.472 167.417,276.868 166.944,276.868 164.017 C 276.868 162.084,277.236 161.786,279.892 161.576 C 282.437 161.375,282.988 160.808,282.988 158.397 C 282.988 157.070,283.216 156.428,284.068 155.356 C 285.554 153.486,285.760 145.564,284.348 144.575 C 283.220 143.784,268.164 143.767,266.787 144.554 C 265.395 145.350,149.870 145.350,147.615 144.554 C 145.166 143.691,138.615 143.807,137.434 144.735 M155.306 149.373 C 155.716 149.714,155.896 150.442,155.896 151.770 C 155.896 154.407,156.114 154.815,157.525 154.815 C 159.619 154.815,159.856 154.572,159.856 152.420 C 159.856 149.382,160.848 148.575,164.367 148.753 C 167.634 148.918,167.909 149.171,168.137 152.222 L 168.317 154.635 170.776 154.815 C 173.789 155.036,174.257 155.525,174.257 158.446 C 174.257 160.814,174.407 160.936,177.327 160.936 C 181.665 160.936,181.757 168.404,177.428 169.093 C 174.156 169.614,171.819 167.950,172.268 165.419 C 172.569 163.723,171.844 163.025,169.924 163.162 L 168.317 163.276 168.099 165.551 C 167.833 168.334,167.369 168.840,164.840 169.101 C 161.459 169.449,160.156 168.443,159.860 165.257 L 159.676 163.276 158.236 163.180 C 154.640 162.941,153.735 162.173,153.735 159.360 C 153.735 157.236,153.252 156.531,151.876 156.653 C 148.143 156.984,146.658 154.638,147.831 150.266 C 148.240 148.743,153.752 148.084,155.306 149.373 M234.498 149.428 C 235.294 150.054,235.445 150.488,235.537 152.398 L 235.644 154.635 237.444 154.635 L 239.244 154.635 239.424 152.176 C 239.650 149.091,240.101 148.693,243.363 148.700 C 246.875 148.708,247.485 149.138,247.706 151.764 C 247.945 154.592,248.046 154.702,250.585 154.885 C 253.322 155.083,253.605 155.385,253.825 158.343 L 254.005 160.756 256.418 160.936 C 259.559 161.170,259.766 161.416,259.766 164.902 C 259.766 168.488,259.480 168.819,256.137 169.093 C 252.949 169.354,251.665 168.562,251.665 166.334 C 251.665 163.865,251.164 163.096,249.552 163.096 C 247.959 163.096,247.705 163.450,247.705 165.670 C 247.705 168.440,246.067 169.500,242.480 169.052 C 240.095 168.754,239.727 168.323,239.458 165.512 L 239.244 163.276 237.006 163.096 C 234.098 162.862,233.577 162.336,233.371 159.417 C 233.184 156.783,233.026 156.629,230.513 156.621 C 227.794 156.613,227.181 155.899,227.188 152.745 C 227.191 151.409,227.313 150.139,227.458 149.924 C 228.417 148.508,232.924 148.190,234.498 149.428 M162.761 156.953 C 162.436 157.158,162.236 157.923,162.221 159.018 L 162.196 160.756 163.815 160.756 L 165.433 160.756 165.767 159.176 C 166.216 157.047,164.555 155.818,162.761 156.953 M242.150 157.181 C 241.391 157.940,241.394 160.426,242.154 160.718 C 244.775 161.723,246.494 159.783,245.172 157.312 C 244.713 156.455,242.953 156.379,242.150 157.181 " stroke="none" fill="#040404" fill-rule="evenodd"></path>
        <path id="path3" d="M195.140 102.599 C 179.564 105.945,165.473 114.604,157.036 126.013 C 150.922 134.280,146.924 142.706,148.671 143.642 C 149.831 144.263,265.382 144.151,266.234 143.528 C 267.106 142.890,266.848 141.603,265.118 137.968 C 252.601 111.674,222.864 96.644,195.140 102.599 M220.162 103.639 C 231.493 106.037,240.210 110.469,249.619 118.618 C 257.004 125.014,267.441 141.148,265.469 143.121 C 264.803 143.786,150.990 143.945,149.751 143.282 C 148.784 142.764,148.865 142.186,150.370 138.853 C 156.398 125.502,169.922 112.200,182.101 107.643 C 183.166 107.245,184.490 106.685,185.043 106.399 C 192.376 102.607,209.081 101.294,220.162 103.639 M149.226 149.917 C 148.663 150.329,148.550 150.826,148.601 152.674 C 148.679 155.475,148.880 155.673,151.862 155.896 L 154.275 156.076 154.455 158.535 C 154.676 161.554,155.162 162.016,158.112 162.016 C 160.563 162.016,160.936 162.433,160.936 165.177 C 160.936 167.474,161.630 168.137,164.035 168.137 C 166.723 168.137,167.417 167.483,167.417 164.948 C 167.417 162.413,167.782 162.015,170.099 162.022 C 172.645 162.029,172.922 162.301,173.097 164.958 C 173.405 169.632,179.658 169.691,179.658 165.020 C 179.658 162.132,179.256 161.656,176.816 161.656 C 173.637 161.656,173.538 161.576,173.532 159.007 C 173.524 155.953,173.329 155.749,170.221 155.536 L 167.597 155.356 167.417 152.774 C 167.198 149.641,167.218 149.662,164.406 149.483 C 161.456 149.295,160.936 149.764,160.936 152.609 C 160.936 155.149,160.574 155.536,158.193 155.536 C 155.289 155.536,155.176 155.434,155.176 152.817 C 155.176 149.688,151.794 148.039,149.226 149.917 M210.215 150.010 C 209.854 150.445,209.713 151.907,209.690 155.429 C 209.655 161.051,209.552 161.255,206.671 161.427 C 204.219 161.574,203.420 162.425,203.420 164.892 C 203.420 167.004,202.944 167.450,200.556 167.572 C 198.043 167.700,197.300 168.442,197.300 170.821 C 197.300 173.726,198.755 173.537,176.366 173.537 L 156.296 173.537 155.736 172.737 C 155.424 172.291,155.176 171.195,155.176 170.261 C 155.176 168.139,154.681 167.723,151.831 167.451 L 149.595 167.237 149.340 164.924 C 148.984 161.697,146.364 160.223,144.436 162.164 C 143.018 163.593,143.957 173.714,146.260 181.818 C 157.988 223.086,207.061 241.069,242.844 217.210 C 256.383 208.182,268.152 190.410,269.913 176.334 C 270.284 173.362,271.348 173.537,252.905 173.537 C 234.739 173.537,234.743 173.538,234.743 171.440 C 234.743 168.289,233.944 167.438,230.963 167.416 C 228.971 167.402,228.761 167.173,228.517 164.749 C 228.250 162.095,227.799 161.641,225.281 161.489 C 222.411 161.316,222.502 161.497,222.502 155.954 C 222.502 149.092,222.821 149.415,216.045 149.415 C 211.521 149.415,210.634 149.505,210.215 150.010 M228.463 150.215 C 226.546 152.952,228.058 155.804,231.510 155.966 L 233.843 156.076 233.953 158.409 C 234.097 161.481,234.586 162.016,237.248 162.016 C 239.790 162.016,240.144 162.374,240.144 164.948 C 240.144 167.515,240.827 168.137,243.644 168.137 C 246.226 168.137,246.985 167.376,246.985 164.788 C 246.985 162.405,247.372 162.016,249.744 162.016 C 251.958 162.016,252.385 162.495,252.385 164.973 C 252.385 168.014,256.333 169.590,258.506 167.417 C 260.628 165.294,259.083 161.659,256.055 161.651 C 253.364 161.643,253.226 161.514,253.035 158.818 C 252.845 156.135,252.306 155.538,250.066 155.531 C 247.195 155.521,246.985 155.347,246.985 152.973 C 246.985 150.156,246.289 149.415,243.644 149.415 C 240.827 149.415,240.144 150.037,240.144 152.604 C 240.144 155.179,239.791 155.536,237.236 155.536 C 234.732 155.536,234.457 155.233,234.504 152.528 C 234.551 149.899,234.021 149.415,231.095 149.415 C 229.363 149.415,228.932 149.546,228.463 150.215 M153.870 150.238 C 156.012 151.804,154.800 155.536,152.150 155.536 C 149.645 155.536,149.055 154.987,149.055 152.655 C 149.055 150.023,151.736 148.677,153.870 150.238 M166.381 150.540 C 167.127 151.286,167.205 154.062,166.511 155.184 C 166.201 155.686,162.244 155.620,161.728 155.104 C 161.198 154.574,161.158 151.426,161.669 150.471 C 162.220 149.441,165.328 149.486,166.381 150.540 M221.154 150.225 C 221.641 150.597,221.762 151.567,221.853 155.835 C 221.979 161.808,222.092 162.016,225.199 162.016 C 227.501 162.016,227.903 162.418,227.903 164.720 C 227.903 167.294,228.421 167.853,230.999 168.057 C 233.738 168.274,234.023 168.538,234.023 170.855 C 234.023 174.095,232.903 173.897,251.241 173.902 C 271.626 173.909,269.946 173.336,268.218 179.691 C 263.305 197.759,251.702 212.193,235.592 220.277 C 230.429 222.869,225.766 224.446,218.362 226.105 C 215.556 226.733,203.384 226.981,199.632 226.485 C 170.224 222.602,147.415 199.046,145.019 170.084 C 144.496 163.763,144.750 162.242,146.355 162.102 C 148.046 161.956,148.448 162.448,148.624 164.878 C 148.813 167.494,149.458 168.137,151.897 168.137 C 154.141 168.137,154.815 168.847,154.815 171.209 C 154.815 174.062,153.430 173.888,176.270 173.908 L 196.760 173.926 197.390 173.152 C 197.790 172.660,198.020 171.762,198.020 170.689 C 198.020 168.532,198.449 168.137,200.792 168.137 C 203.292 168.137,204.140 167.356,204.140 165.053 C 204.140 162.470,204.546 162.016,206.853 162.016 C 210.036 162.016,210.261 161.601,210.261 155.741 C 210.261 151.826,210.369 150.799,210.827 150.341 C 211.562 149.606,220.216 149.509,221.154 150.225 M233.434 150.234 C 233.942 150.606,234.041 151.139,233.953 153.025 L 233.843 155.356 231.683 155.449 C 228.943 155.567,228.564 155.299,228.352 153.095 C 228.078 150.249,231.116 148.539,233.434 150.234 M245.675 150.234 C 246.183 150.606,246.282 151.139,246.194 153.025 L 246.085 155.356 243.803 155.464 C 240.955 155.598,240.504 155.257,240.504 152.971 C 240.504 150.169,243.452 148.609,245.675 150.234 M160.864 158.357 C 160.999 161.212,160.660 161.656,158.348 161.656 C 155.544 161.656,155.176 161.306,155.176 158.643 C 155.176 155.822,155.149 155.845,158.220 155.971 L 160.756 156.076 160.864 158.357 M166.331 156.245 C 166.835 156.563,167.060 160.692,166.600 161.153 C 165.062 162.691,161.296 161.394,161.296 159.327 C 161.296 156.163,163.789 154.637,166.331 156.245 M172.612 156.461 C 173.349 157.199,173.390 160.671,172.669 161.270 C 172.363 161.524,171.251 161.649,169.878 161.584 L 167.597 161.476 167.488 159.174 C 167.429 157.908,167.464 156.652,167.567 156.384 C 167.845 155.660,171.872 155.722,172.612 156.461 M239.712 156.203 C 240.040 156.412,240.147 157.241,240.072 158.988 L 239.964 161.476 237.746 161.583 C 234.744 161.726,233.299 159.314,234.756 156.592 C 235.154 155.848,238.712 155.569,239.712 156.203 M245.695 156.114 C 246.399 156.384,246.511 160.546,245.833 161.224 C 245.377 161.680,243.040 161.795,241.674 161.429 C 240.727 161.175,240.409 156.499,241.314 156.134 C 241.965 155.871,245.026 155.857,245.695 156.114 M251.819 156.461 C 252.502 157.144,252.599 160.578,251.953 161.224 C 251.503 161.674,248.544 161.818,247.554 161.438 C 246.967 161.212,246.685 156.675,247.225 156.136 C 247.721 155.639,251.247 155.889,251.819 156.461 M166.684 162.713 C 168.377 165.876,165.124 169.188,162.204 167.275 C 161.307 166.687,160.813 162.979,161.536 162.256 C 162.150 161.642,166.308 162.011,166.684 162.713 M178.505 162.323 C 179.136 162.724,179.362 166.112,178.808 166.869 C 178.257 167.623,175.825 167.956,174.527 167.456 C 173.552 167.080,172.972 163.061,173.777 162.256 C 174.119 161.915,177.946 161.969,178.505 162.323 M246.191 164.629 C 246.315 167.460,245.652 168.034,242.755 167.601 C 241.016 167.342,240.504 166.685,240.504 164.716 C 240.504 162.330,240.939 161.970,243.676 162.090 L 246.085 162.196 246.191 164.629 M257.966 162.512 C 258.800 163.121,258.898 166.587,258.097 167.095 C 254.947 169.092,251.779 166.406,253.121 162.876 C 253.506 161.861,256.744 161.618,257.966 162.512 M198.560 247.719 C 156.629 251.540,122.036 274.052,103.664 309.476 C 100.108 316.333,100.103 316.311,106.285 320.689 C 130.663 337.956,157.334 348.082,188.299 351.828 C 196.290 352.795,217.236 353.009,223.942 352.193 C 256.003 348.289,279.591 339.870,304.410 323.476 C 315.328 316.264,315.039 316.980,310.539 308.313 C 300.752 289.465,284.434 272.983,264.805 262.119 C 260.342 259.649,248.928 254.545,247.866 254.545 C 247.590 254.545,246.185 254.079,244.744 253.509 C 233.640 249.114,212.430 246.455,198.560 247.719 M224.662 249.663 C 230.928 250.594,231.838 250.788,239.064 252.745 C 264.746 259.699,289.233 276.912,302.965 297.663 C 304.242 299.592,305.706 301.734,306.219 302.424 C 307.591 304.269,312.871 314.859,312.871 315.765 C 312.871 317.719,298.715 327.139,286.769 333.133 C 273.580 339.750,263.584 343.502,250.045 346.916 C 248.065 347.415,245.554 348.049,244.464 348.325 C 243.375 348.600,240.378 349.161,237.804 349.571 C 235.230 349.981,232.151 350.477,230.963 350.674 C 221.816 352.185,203.573 352.756,194.599 351.812 C 185.362 350.841,183.618 350.623,178.218 349.761 C 175.149 349.272,171.665 348.640,170.477 348.356 C 157.012 345.145,149.644 342.805,139.514 338.518 C 126.033 332.814,103.684 319.633,102.273 316.554 C 101.203 314.217,109.775 299.356,117.689 289.829 C 129.198 275.975,150.771 260.589,164.561 256.400 C 165.241 256.194,167.417 255.446,169.397 254.739 C 173.479 253.280,183.249 250.751,187.034 250.173 C 197.776 248.532,198.762 248.460,208.641 248.594 C 216.778 248.705,219.388 248.879,224.662 249.663 " stroke="none" fill="#858587" fill-rule="evenodd"></path>
        <path id="path4" d="M200.720 102.620 C 195.940 103.144,187.316 105.223,185.043 106.399 C 184.490 106.685,183.166 107.245,182.101 107.643 C 169.922 112.200,156.398 125.502,150.370 138.853 C 148.865 142.186,148.784 142.764,149.751 143.282 C 150.990 143.945,264.803 143.786,265.469 143.121 C 266.119 142.470,265.503 140.629,263.153 136.197 C 252.273 115.682,232.013 102.967,209.361 102.438 C 206.193 102.364,202.304 102.446,200.720 102.620 M213.864 103.506 C 220.087 104.247,228.653 106.421,230.963 107.846 C 231.359 108.091,232.331 108.493,233.123 108.741 C 234.882 109.291,241.000 112.796,242.484 114.104 C 243.078 114.628,244.374 115.608,245.365 116.282 C 251.138 120.213,258.202 128.480,261.834 135.554 C 264.527 140.799,265.028 141.946,264.841 142.433 C 264.678 142.858,255.993 142.934,207.392 142.934 L 150.135 142.934 150.135 141.934 C 150.135 141.384,150.349 140.615,150.611 140.224 C 150.873 139.834,151.313 138.947,151.588 138.254 C 152.319 136.416,155.436 131.176,157.131 128.937 C 157.937 127.872,158.941 126.495,159.363 125.876 C 166.181 115.891,184.119 105.687,198.020 103.887 C 205.968 102.858,208.009 102.809,213.864 103.506 M149.621 150.341 C 147.677 152.285,149.259 155.536,152.150 155.536 C 154.431 155.536,155.031 154.731,154.690 152.128 C 154.400 149.909,151.186 148.776,149.621 150.341 M161.669 150.471 C 161.158 151.426,161.198 154.574,161.728 155.104 C 162.244 155.620,166.201 155.686,166.511 155.184 C 167.205 154.062,167.127 151.286,166.381 150.540 C 165.328 149.486,162.220 149.441,161.669 150.471 M210.827 150.341 C 210.369 150.799,210.261 151.826,210.261 155.741 C 210.261 161.601,210.036 162.016,206.853 162.016 C 204.546 162.016,204.140 162.470,204.140 165.053 C 204.140 167.356,203.292 168.137,200.792 168.137 C 198.449 168.137,198.020 168.532,198.020 170.689 C 198.020 171.762,197.790 172.660,197.390 173.152 L 196.760 173.926 176.270 173.908 C 153.430 173.888,154.815 174.062,154.815 171.209 C 154.815 168.847,154.141 168.137,151.897 168.137 C 149.458 168.137,148.813 167.494,148.624 164.878 C 148.448 162.448,148.046 161.956,146.355 162.102 C 144.750 162.242,144.496 163.763,145.019 170.084 C 147.415 199.046,170.224 222.602,199.632 226.485 C 203.384 226.981,215.556 226.733,218.362 226.105 C 225.766 224.446,230.429 222.869,235.592 220.277 C 251.702 212.193,263.305 197.759,268.218 179.691 C 269.946 173.336,271.626 173.909,251.241 173.902 C 232.903 173.897,234.023 174.095,234.023 170.855 C 234.023 168.538,233.738 168.274,230.999 168.057 C 228.421 167.853,227.903 167.294,227.903 164.720 C 227.903 162.418,227.501 162.016,225.199 162.016 C 222.092 162.016,221.979 161.808,221.853 155.835 C 221.762 151.567,221.641 150.597,221.154 150.225 C 220.216 149.509,211.562 149.606,210.827 150.341 M228.941 150.537 C 228.309 151.169,228.209 151.605,228.352 153.095 C 228.564 155.299,228.943 155.567,231.683 155.449 L 233.843 155.356 233.953 153.025 C 234.104 149.798,231.148 148.330,228.941 150.537 M241.224 150.495 C 240.348 151.372,240.206 154.480,241.013 155.149 C 241.319 155.403,242.431 155.528,243.803 155.464 L 246.085 155.356 246.194 153.025 C 246.344 149.833,243.390 148.330,241.224 150.495 M153.711 150.646 C 153.955 150.940,154.089 151.970,154.025 153.076 L 153.915 154.995 152.295 155.089 C 150.022 155.221,149.595 154.836,149.595 152.655 C 149.595 151.424,149.771 150.718,150.135 150.487 C 150.956 149.969,153.233 150.069,153.711 150.646 M165.905 150.567 C 166.465 151.127,166.465 154.183,165.905 154.743 C 164.452 156.196,161.656 154.995,161.656 152.920 C 161.656 150.394,164.279 148.942,165.905 150.567 M233.279 150.646 C 233.523 150.940,233.656 151.970,233.593 153.076 L 233.483 154.995 231.683 155.089 C 229.458 155.205,229.014 154.929,228.744 153.263 C 228.329 150.708,231.711 148.756,233.279 150.646 M245.473 150.567 C 245.710 150.805,245.905 151.744,245.905 152.655 C 245.905 154.967,244.243 155.897,241.794 154.957 C 240.943 154.630,240.992 151.026,241.854 150.524 C 242.725 150.017,244.949 150.043,245.473 150.567 M221.204 151.065 C 221.324 151.378,221.422 153.777,221.422 156.396 C 221.422 162.258,221.517 162.440,224.704 162.666 C 227.362 162.855,227.528 163.017,227.543 165.437 C 227.559 168.118,228.452 168.857,231.678 168.857 C 233.361 168.857,234.052 169.947,233.490 171.715 C 233.210 172.598,233.793 173.749,234.790 174.282 C 235.311 174.561,240.366 174.676,251.335 174.659 C 268.136 174.632,268.228 174.639,268.225 175.826 C 268.223 176.628,266.272 183.410,265.051 186.859 C 260.210 200.532,247.632 213.797,233.122 220.532 C 227.737 223.031,225.062 223.805,214.941 225.794 C 211.342 226.501,200.342 225.979,195.151 224.855 C 175.973 220.701,161.955 210.096,152.304 192.439 C 148.134 184.810,144.465 169.143,145.618 163.893 C 146.134 161.544,148.065 162.484,147.966 165.036 C 147.934 165.851,147.923 166.715,147.941 166.958 C 148.003 167.769,149.900 168.675,151.919 168.857 L 153.915 169.037 154.095 171.100 C 154.341 173.913,155.001 174.614,157.422 174.631 C 158.464 174.639,167.822 174.645,178.218 174.645 L 197.120 174.646 197.968 173.666 C 198.631 172.902,198.779 172.399,198.641 171.372 C 198.369 169.345,198.829 168.857,201.012 168.857 C 203.697 168.857,204.890 167.727,204.783 165.282 C 204.686 163.049,205.291 162.242,206.842 162.533 C 210.193 163.161,210.981 161.836,210.981 155.572 C 210.981 153.044,211.089 150.867,211.221 150.735 C 211.787 150.170,220.977 150.473,221.204 151.065 M155.430 156.121 C 155.290 156.261,155.176 157.396,155.176 158.643 C 155.176 161.306,155.544 161.656,158.348 161.656 C 160.660 161.656,160.999 161.212,160.864 158.357 L 160.756 156.076 158.220 155.971 C 156.825 155.914,155.570 155.981,155.430 156.121 M167.567 156.384 C 167.464 156.652,167.429 157.908,167.488 159.174 L 167.597 161.476 169.878 161.584 C 171.251 161.649,172.363 161.524,172.669 161.270 C 173.390 160.671,173.349 157.199,172.612 156.461 C 171.872 155.722,167.845 155.660,167.567 156.384 M234.756 156.592 C 233.299 159.314,234.744 161.726,237.746 161.583 L 239.964 161.476 240.072 158.988 C 240.199 156.052,240.065 155.909,237.186 155.901 C 235.517 155.897,235.058 156.027,234.756 156.592 M247.225 156.136 C 246.685 156.675,246.967 161.212,247.554 161.438 C 248.544 161.818,251.503 161.674,251.953 161.224 C 252.599 160.578,252.502 157.144,251.819 156.461 C 251.247 155.889,247.721 155.639,247.225 156.136 M160.010 156.821 C 162.258 159.069,159.125 162.472,156.232 160.923 C 155.420 160.489,155.229 157.427,155.968 156.688 C 156.598 156.057,159.337 156.148,160.010 156.821 M172.252 156.821 C 174.069 158.639,172.544 161.383,169.804 161.223 L 167.957 161.116 167.847 158.989 C 167.772 157.532,167.885 156.769,168.207 156.565 C 169.018 156.050,171.647 156.217,172.252 156.821 M239.236 156.839 C 239.656 157.259,239.789 157.937,239.711 159.269 L 239.604 161.116 237.866 161.227 C 236.893 161.289,235.902 161.151,235.616 160.913 C 234.959 160.368,234.908 156.754,235.554 156.494 C 236.566 156.086,238.680 156.284,239.236 156.839 M251.674 157.179 C 252.663 159.780,251.931 161.296,249.685 161.296 C 247.791 161.296,247.345 160.815,247.345 158.776 C 247.345 156.147,250.797 154.873,251.674 157.179 M161.536 162.256 C 160.813 162.979,161.307 166.687,162.204 167.275 C 165.124 169.188,168.377 165.876,166.684 162.713 C 166.308 162.011,162.150 161.642,161.536 162.256 M173.777 162.256 C 172.972 163.061,173.552 167.080,174.527 167.456 C 175.825 167.956,178.257 167.623,178.808 166.869 C 179.362 166.112,179.136 162.724,178.505 162.323 C 177.946 161.969,174.119 161.915,173.777 162.256 M240.885 162.697 C 239.222 165.804,241.933 168.726,245.291 167.446 C 246.273 167.072,246.295 167.001,246.191 164.629 L 246.085 162.196 243.676 162.090 C 241.582 161.998,241.217 162.077,240.885 162.697 M253.121 162.876 C 251.779 166.406,254.947 169.092,258.097 167.095 C 258.898 166.587,258.800 163.121,257.966 162.512 C 256.744 161.618,253.506 161.861,253.121 162.876 M165.950 162.884 C 168.041 165.403,164.839 168.622,161.993 166.862 C 161.539 166.582,161.564 163.941,162.029 163.073 C 162.486 162.218,165.286 162.084,165.950 162.884 M178.420 162.818 C 178.620 163.018,178.702 164.122,178.635 165.724 L 178.578 167.091 176.328 166.984 L 174.077 166.877 173.968 164.982 C 173.871 163.294,173.950 163.049,174.688 162.736 C 175.443 162.417,178.076 162.475,178.420 162.818 M245.319 162.838 C 246.410 163.636,246.003 166.755,244.765 167.083 C 242.557 167.670,241.415 167.026,241.293 165.126 C 241.129 162.574,243.283 161.350,245.319 162.838 M257.580 162.942 C 258.165 163.527,258.343 165.829,257.862 166.586 C 257.553 167.072,254.549 167.324,253.894 166.919 C 253.335 166.574,253.338 163.368,253.897 162.808 C 254.518 162.188,256.913 162.275,257.580 162.942 M194.239 249.124 C 191.665 249.489,188.423 249.960,187.034 250.173 C 183.249 250.751,173.479 253.280,169.397 254.739 C 167.417 255.446,165.241 256.194,164.561 256.400 C 162.431 257.047,153.395 261.300,149.615 263.434 C 130.669 274.131,115.785 289.144,105.671 307.757 C 101.004 316.348,101.000 316.195,105.924 319.712 C 119.734 329.577,136.427 338.105,151.935 343.218 C 158.486 345.378,161.567 346.232,170.477 348.356 C 171.665 348.640,175.149 349.272,178.218 349.761 C 183.618 350.623,185.362 350.841,194.599 351.812 C 203.573 352.756,221.816 352.185,230.963 350.674 C 232.151 350.477,235.230 349.981,237.804 349.571 C 240.378 349.161,24 3.375 348.600,244.464 348.325 C 245.554 348.049,248.065 347.415,250.045 346.916 C 270.117 341.855,286.487 334.577,304.438 322.733 C 311.287 318.215,312.871 316.906,312.871 315.765 C 312.871 314.859,307.591 304.269,306.219 302.424 C 305.706 301.734,304.242 299.592,302.965 297.663 C 294.511 284.887,279.690 271.436,265.374 263.548 C 254.717 257.675,247.437 254.879,233.123 251.160 C 223.963 248.780,204.040 247.737,194.239 249.124 M221.062 250.053 C 222.943 250.357,225.720 250.754,227.232 250.935 C 228.744 251.116,231.579 251.700,233.532 252.231 C 235.486 252.763,237.894 253.334,238.884 253.499 C 239.874 253.664,241.413 254.112,242.304 254.493 C 243.195 254.874,245.383 255.639,247.165 256.192 C 257.456 259.386,272.356 267.838,281.908 275.900 C 286.444 279.728,295.810 289.175,297.930 292.060 C 304.255 300.670,306.501 304.228,309.648 310.623 C 312.542 316.503,312.542 316.461,309.518 318.470 C 308.491 319.153,306.172 320.724,304.365 321.962 C 294.916 328.434,285.881 333.306,273.987 338.344 C 269.671 340.173,260.341 343.453,256.346 344.547 C 247.112 347.075,246.601 347.200,240.684 348.365 C 226.875 351.085,207.196 352.483,198.370 351.371 C 196.692 351.159,193.375 350.849,190.999 350.681 C 180.381 349.929,164.416 346.696,154.455 343.280 C 152.376 342.567,149.946 341.769,149.055 341.508 C 146.836 340.858,143.099 339.425,140.748 338.323 C 139.673 337.820,137.255 336.721,135.374 335.882 C 132.128 334.433,127.222 331.956,122.052 329.155 C 116.218 325.994,104.180 318.024,103.087 316.600 C 102.437 315.752,103.275 313.699,106.740 307.651 C 107.421 306.463,108.228 304.970,108.533 304.334 C 108.996 303.371,110.891 300.426,114.391 295.230 C 114.725 294.734,115.734 293.494,116.635 292.474 C 117.535 291.453,119.001 289.696,119.892 288.569 C 126.647 280.027,138.926 270.358,152.760 262.687 C 157.142 260.257,165.655 256.685,169.954 255.471 C 170.854 255.217,171.907 254.840,172.294 254.633 C 173.318 254.086,186.080 250.945,187.280 250.945 C 187.840 250.945,189.759 250.693,191.544 250.385 C 199.167 249.069,213.957 248.903,221.062 250.053 " stroke="none" fill="#a4a4a5" fill-rule="evenodd"></path>
    </g>
</svg>
