<svg id="svg" version="1.1" xmlns="http://www.w3.org/2000/svg" xmlns:xlink="http://www.w3.org/1999/xlink" width="420" height="350.2894736842105" viewBox="0, 0, 420,350.2894736842105">
    <g id="svgg">
        <path id="path0" d="M133.005 8.569 C 123.413 12.340,112.743 17.517,106.568 21.395 C 71.979 43.118,51.666 70.876,45.200 105.255 C 43.268 115.528,43.268 134.462,45.201 144.499 C 48.819 163.292,56.149 179.750,67.289 194.089 L 69.458 196.880 69.385 200.933 C 69.282 206.636,67.277 219.162,65.697 223.974 C 65.548 224.425,65.169 225.755,64.853 226.929 C 61.507 239.370,53.058 260.665,45.916 274.656 C 45.194 276.069,44.695 277.317,44.806 277.428 C 45.185 277.807,49.671 276.974,61.248 274.375 C 62.332 274.132,64.548 273.638,66.174 273.277 C 93.285 267.267,127.080 255.745,141.626 247.554 C 144.980 245.664,144.902 245.918,143.937 240.041 C 143.490 237.325,143.374 234.496,143.375 226.355 C 143.375 220.710,143.296 216.095,143.199 216.099 C 143.101 216.104,142.061 216.639,140.887 217.289 C 125.928 225.571,112.055 231.696,97.394 236.491 C 90.079 238.884,90.039 238.864,91.788 233.795 C 96.286 220.762,102.968 191.374,101.933 189.176 C 101.773 188.837,100.447 187.311,98.987 185.786 C 83.935 170.068,76.335 155.642,73.346 137.110 C 72.533 132.072,72.532 117.779,73.344 113.465 C 73.649 111.839,74.063 109.622,74.263 108.539 C 77.938 88.605,93.950 65.024,112.516 52.203 C 112.898 51.940,114.819 50.624,116.786 49.280 C 140.752 32.896,174.089 24.366,205.408 26.602 C 214.451 27.247,218.654 27.865,230.049 30.225 C 240.377 32.364,256.725 38.769,266.667 44.572 C 294.614 60.886,313.642 86.062,317.246 111.494 C 317.885 116.002,317.217 115.422,324.631 117.913 C 332.092 120.421,337.576 122.639,342.833 125.275 C 347.697 127.715,347.457 127.795,347.445 123.727 C 347.383 102.698,340.184 79.643,328.292 62.397 C 311.437 37.952,288.131 20.207,257.361 8.389 L 253.474 6.897 195.292 6.926 L 137.110 6.955 133.005 8.569 M163.473 64.172 C 151.606 68.266,143.431 75.418,138.662 85.878 C 137.190 89.108,136.745 90.507,135.622 95.447 C 134.945 98.426,134.652 104.853,134.650 116.839 L 134.647 129.409 135.489 129.729 C 136.833 130.240,172.802 130.155,173.504 129.639 C 174.021 129.259,174.057 127.835,173.977 110.837 L 173.892 92.447 166.127 92.359 C 156.936 92.255,157.297 92.400,157.956 89.061 C 159.427 81.613,163.662 75.880,170.512 72.066 C 173.439 70.436,173.478 70.149,171.371 65.846 C 169.564 62.154,169.416 62.122,163.473 64.172 M220.525 63.921 C 218.719 64.555,216.946 65.160,216.585 65.266 C 211.163 66.855,202.216 74.017,198.128 80.040 C 192.135 88.872,191.147 93.768,191.139 114.681 L 191.133 129.691 192.200 129.885 C 194.802 130.357,229.898 129.902,230.221 129.392 C 230.712 128.615,230.642 93.171,230.148 92.677 C 229.864 92.393,227.661 92.282,222.306 92.282 C 213.649 92.282,213.915 92.378,214.230 89.367 C 214.944 82.529,220.330 75.256,227.271 71.754 C 229.933 70.412,229.918 70.776,227.529 65.636 C 225.901 62.131,225.738 62.091,220.525 63.921 M269.130 139.928 C 260.324 140.639,252.978 141.809,246.798 143.487 C 240.552 145.183,239.347 145.555,235.591 146.943 C 203.366 158.858,180.495 182.728,174.526 210.673 C 173.000 217.814,172.944 218.399,172.933 227.258 C 172.921 236.794,173.025 237.648,175.253 246.394 C 182.774 275.918,209.079 300.780,242.693 310.135 C 262.308 315.594,289.105 316.088,307.225 311.325 C 310.726 310.404,312.310 310.391,313.548 311.272 C 315.791 312.870,324.818 316.769,334.483 320.316 L 339.080 322.003 357.389 322.091 C 371.774 322.160,375.698 322.091,375.698 321.772 C 375.698 321.418,374.094 317.372,372.078 312.644 C 368.094 303.298,364.293 288.455,363.961 280.952 L 363.787 277.011 364.906 275.534 C 372.741 265.178,378.055 253.737,380.083 242.857 C 381.332 236.158,381.445 234.832,381.427 227.094 C 381.404 216.925,380.613 211.845,377.719 203.284 C 372.006 186.379,360.533 171.504,344.499 160.213 C 341.143 157.849,330.191 151.396,329.536 151.396 C 329.449 151.396,328.088 150.793,326.512 150.057 C 324.935 149.320,321.798 148.058,319.540 147.253 C 317.282 146.447,315.111 145.653,314.714 145.487 C 305.480 141.633,282.595 138.842,269.130 139.928 M271.734 199.202 C 272.826 200.294,272.312 227.573,271.084 233.717 C 268.055 248.867,256.359 260.472,239.861 264.696 C 237.497 265.302,237.281 265.131,235.440 261.188 C 233.362 256.739,233.365 256.727,236.710 254.806 C 243.745 250.769,248.604 243.666,248.604 237.422 L 248.604 236.453 241.278 236.453 C 235.470 236.453,233.819 236.357,233.314 235.987 C 232.424 235.336,232.131 200.796,233.004 199.463 L 233.513 198.686 252.365 198.686 C 269.066 198.686,271.276 198.745,271.734 199.202 M326.043 199.080 C 326.539 199.576,326.590 226.241,326.101 229.721 C 323.561 247.821,309.693 262.580,293.030 264.917 L 291.643 265.112 289.795 261.326 C 287.658 256.950,287.667 256.531,289.930 255.394 C 296.691 251.998,300.743 247.055,302.478 240.085 C 303.449 236.181,303.956 236.453,295.719 236.453 C 291.458 236.453,288.373 236.317,287.992 236.113 C 287.207 235.693,286.973 199.858,287.750 199.080 C 288.319 198.512,325.474 198.512,326.043 199.080 " stroke="none" fill="#060606" fill-rule="evenodd"></path>
        <path id="path1" d="M0.000 164.204 L 0.000 328.407 200.000 328.407 L 400.000 328.407 400.000 164.204 L 400.000 0.000 200.000 0.000 L 0.000 0.000 0.000 164.204 M257.143 7.240 C 258.678 7.788,260.525 8.505,261.248 8.832 C 261.970 9.160,263.596 9.841,264.860 10.346 C 267.756 11.504,278.821 16.976,281.536 18.594 C 298.165 28.503,308.498 36.887,319.533 49.425 C 330.427 61.805,340.331 79.548,343.821 92.939 C 344.174 94.294,344.750 96.437,345.102 97.701 C 347.443 106.125,349.366 125.407,348.100 127.772 C 347.637 128.636,347.315 128.586,344.663 127.230 C 343.399 126.584,341.108 125.495,339.573 124.810 C 338.038 124.125,336.117 123.256,335.304 122.880 C 332.779 121.711,325.793 119.192,321.839 118.025 C 317.418 116.721,317.167 116.491,316.631 113.255 C 316.410 111.925,316.092 110.246,315.923 109.524 C 315.754 108.801,315.377 107.176,315.085 105.911 C 310.314 85.267,296.912 66.894,274.968 50.916 C 264.260 43.119,247.347 35.642,231.527 31.711 C 223.026 29.599,222.878 29.573,209.688 27.860 C 207.539 27.581,202.603 27.439,195.402 27.448 C 183.454 27.464,179.664 27.787,167.156 29.854 C 125.955 36.663,87.001 67.475,77.230 100.985 C 74.222 111.299,73.414 117.170,73.661 126.929 C 74.234 149.660,81.871 166.539,100.242 185.680 C 103.731 189.315,103.726 189.258,101.484 200.164 C 100.992 202.559,100.145 206.836,99.826 208.539 C 99.674 209.351,99.086 211.790,98.519 213.957 C 97.952 216.125,97.143 219.228,96.722 220.854 C 96.300 222.479,95.045 226.743,93.933 230.329 C 92.821 233.915,91.979 236.916,92.062 236.999 C 92.441 237.378,109.351 231.437,114.122 229.250 C 114.844 228.918,116.396 228.248,117.570 227.760 C 122.864 225.561,131.096 221.501,139.130 217.129 C 145.047 213.908,145.052 213.910,144.508 219.071 C 143.968 224.199,144.112 231.811,144.868 238.095 C 145.884 246.535,145.942 245.926,144.007 247.226 C 140.699 249.448,130.351 254.283,121.675 257.659 C 111.454 261.636,94.824 266.945,83.098 269.975 C 81.026 270.510,78.588 271.161,77.679 271.422 C 75.401 272.075,71.058 273.165,69.287 273.527 C 68.478 273.693,66.560 274.144,65.025 274.529 C 60.672 275.622,57.421 276.327,53.859 276.951 C 53.407 277.031,51.634 277.405,49.918 277.785 C 42.914 279.332,42.698 279.101,45.591 273.155 C 48.041 268.117,51.560 260.541,51.560 260.303 C 51.560 260.204,52.059 259.047,52.669 257.730 C 60.320 241.213,66.688 219.510,68.153 204.961 C 68.885 197.685,68.900 197.811,67.019 195.369 C 55.831 180.839,47.972 163.886,44.883 147.619 C 41.846 131.630,41.660 123.185,43.987 106.897 C 47.777 80.365,66.263 49.674,88.699 32.664 C 95.830 27.258,99.455 24.682,103.284 22.298 C 109.241 18.589,110.315 17.995,117.449 14.456 C 124.507 10.956,126.258 10.184,133.169 7.528 L 136.453 6.266 195.402 6.255 L 254.351 6.243 257.143 7.240 M170.952 62.726 C 171.206 63.177,172.110 65.075,172.960 66.943 C 174.759 70.894,174.741 70.987,171.925 72.348 C 164.996 75.697,158.949 83.939,158.949 90.035 L 158.949 91.263 166.453 91.362 C 172.215 91.438,174.082 91.566,174.499 91.912 C 175.307 92.584,175.332 129.711,174.525 130.518 C 173.740 131.303,134.963 131.303,134.178 130.518 C 133.416 129.756,133.415 103.196,134.176 97.957 C 136.564 81.536,146.174 69.636,161.905 63.623 C 166.928 61.703,170.194 61.379,170.952 62.726 M227.586 63.553 C 231.090 70.586,231.145 71.115,228.494 72.245 C 221.624 75.175,215.131 83.814,215.111 90.049 L 215.107 91.263 222.775 91.362 C 228.676 91.439,230.567 91.565,230.985 91.912 C 231.788 92.580,231.818 129.160,231.016 130.305 L 230.505 131.034 210.882 131.034 C 195.373 131.034,191.137 130.946,190.679 130.611 C 189.703 129.897,190.074 97.845,191.101 94.089 C 191.497 92.644,191.938 91.014,192.082 90.468 C 195.488 77.556,207.559 66.240,222.012 62.411 C 225.822 61.402,226.594 61.560,227.586 63.553 M290.805 139.384 C 292.972 139.651,296.002 140.103,297.537 140.388 C 299.072 140.673,301.141 141.048,302.135 141.222 C 339.114 147.699,373.706 177.422,380.287 208.374 C 380.440 209.097,380.802 210.722,381.092 211.987 C 382.957 220.147,383.045 233.952,381.282 241.878 C 378.718 253.407,375.802 260.789,370.453 269.294 C 368.763 271.981,368.300 272.638,365.846 275.842 C 362.842 279.764,367.371 299.801,375.416 318.172 C 376.705 321.117,376.965 321.992,376.660 322.360 C 376.336 322.750,373.307 322.824,357.662 322.824 L 339.050 322.824 335.288 321.527 C 326.557 318.515,321.450 316.423,315.271 313.328 L 311.494 311.437 308.703 312.033 C 305.735 312.667,304.670 312.857,298.194 313.910 C 289.956 315.250,287.367 315.435,276.847 315.435 C 266.093 315.435,261.577 315.113,255.172 313.890 C 253.276 313.528,251.059 313.118,250.246 312.979 C 240.556 311.324,226.659 306.049,216.913 300.327 C 180.084 278.705,163.533 239.546,175.719 202.864 C 183.438 179.626,207.109 155.835,230.321 147.982 C 231.193 147.687,232.323 147.230,232.833 146.966 C 235.554 145.559,247.788 141.957,252.381 141.211 C 253.284 141.064,255.649 140.649,257.635 140.288 C 260.781 139.716,265.125 139.196,270.279 138.774 C 273.419 138.517,287.054 138.922,290.805 139.384 M233.978 200.079 C 233.891 200.307,233.858 208.251,233.905 217.734 L 233.990 234.975 241.248 235.140 C 250.925 235.359,251.007 235.467,247.998 243.985 C 246.425 248.437,240.862 254.196,236.207 256.193 C 234.474 256.936,234.474 256.955,236.373 260.755 L 237.931 263.875 239.219 263.761 C 251.064 262.711,265.259 250.065,269.137 237.110 C 271.000 230.885,271.031 230.520,271.067 214.614 L 271.100 199.836 252.618 199.751 C 238.007 199.684,234.103 199.753,233.978 200.079 M288.214 200.188 C 287.895 201.018,287.991 234.268,288.314 234.777 C 288.548 235.147,289.840 235.227,294.959 235.191 C 303.360 235.130,303.581 235.183,303.722 237.286 C 304.148 243.622,298.260 252.306,291.074 255.941 C 288.838 257.073,288.868 256.862,290.446 260.368 C 292.291 264.465,292.379 264.489,298.108 262.534 C 311.766 257.871,321.501 247.189,324.382 233.703 C 325.223 229.764,325.232 229.560,325.260 214.778 L 325.287 199.836 306.851 199.751 C 290.252 199.675,288.394 199.718,288.214 200.188 " stroke="none" fill="#f3f3f3" fill-rule="evenodd"></path>
        <path id="path2" d="M133.662 7.926 C 131.765 8.661,129.548 9.522,128.736 9.839 C 124.503 11.487,113.146 17.006,109.525 19.174 C 99.649 25.089,95.282 28.145,86.207 35.491 C 82.262 38.684,72.894 48.371,68.602 53.695 C 64.974 58.195,57.471 69.299,57.471 70.167 C 57.471 70.258,56.948 71.226,56.309 72.317 C 53.933 76.370,47.619 91.605,47.619 93.284 C 47.619 93.478,47.251 94.921,46.801 96.490 C 42.622 111.059,42.143 132.871,45.656 148.604 C 49.483 165.740,56.017 179.864,66.568 193.808 L 68.966 196.976 68.963 200.212 C 68.957 207.277,67.470 215.813,64.078 228.243 C 61.089 239.199,52.966 259.665,46.443 272.677 C 43.571 278.404,43.596 278.517,47.553 277.694 C 48.944 277.404,50.821 277.019,51.724 276.838 C 52.627 276.657,54.770 276.226,56.486 275.880 C 63.901 274.386,80.609 270.211,89.984 267.510 C 112.285 261.086,131.814 253.665,142.288 247.637 C 145.323 245.890,145.321 245.893,144.611 241.997 C 144.165 239.548,144.033 236.566,143.966 227.458 C 143.920 221.156,143.762 215.887,143.616 215.748 C 143.470 215.609,141.872 216.311,140.066 217.308 C 126.962 224.540,112.252 231.054,98.664 235.644 C 91.019 238.226,90.472 238.179,91.779 235.051 C 93.564 230.781,98.739 211.505,100.309 203.284 C 102.948 189.460,102.960 189.209,101.040 187.344 C 89.959 176.583,80.605 162.181,76.730 149.918 C 61.703 102.350,91.995 53.363,148.198 34.341 C 219.026 10.370,300.177 44.841,315.530 105.419 C 316.388 108.806,316.762 110.655,317.407 114.711 C 317.639 116.170,317.291 115.990,324.138 118.175 C 330.149 120.092,337.546 123.090,342.996 125.818 C 348.023 128.334,347.783 128.488,347.783 122.753 C 347.778 87.334,328.505 52.341,295.895 28.542 C 291.757 25.523,282.800 19.704,282.289 19.704 C 282.179 19.704,281.520 19.346,280.825 18.907 C 276.472 16.158,267.532 11.942,259.125 8.672 L 253.718 6.568 195.414 6.578 L 137.110 6.589 133.662 7.926 M257.361 8.389 C 292.806 22.003,319.392 44.322,334.797 73.399 C 342.791 88.488,347.395 106.809,347.445 123.727 C 347.457 127.795,347.697 127.715,342.833 125.275 C 337.576 122.639,332.092 120.421,324.631 117.913 C 317.217 115.422,317.885 116.002,317.246 111.494 C 316.215 104.222,312.886 94.453,308.796 86.700 C 296.370 63.142,272.973 44.347,243.186 33.994 C 241.210 33.307,231.551 30.536,230.049 30.225 C 218.654 27.865,214.451 27.247,205.408 26.602 C 174.089 24.366,140.752 32.896,116.786 49.280 C 114.819 50.624,112.898 51.940,112.516 52.203 C 93.950 65.024,77.938 88.605,74.263 108.539 C 74.063 109.622,73.649 111.839,73.344 113.465 C 72.532 117.779,72.533 132.072,73.346 137.110 C 76.335 155.642,83.935 170.068,98.987 185.786 C 100.447 187.311,101.773 188.837,101.933 189.176 C 102.968 191.374,96.286 220.762,91.788 233.795 C 90.039 238.864,90.079 238.884,97.394 236.491 C 112.055 231.696,125.928 225.571,140.887 217.289 C 142.061 216.639,143.101 216.104,143.199 216.099 C 143.296 216.095,143.375 220.710,143.375 226.355 C 143.374 234.496,143.490 237.325,143.937 240.041 C 144.902 245.918,144.980 245.664,141.626 247.554 C 127.080 255.745,93.285 267.267,66.174 273.277 C 64.548 273.638,62.332 274.132,61.248 274.375 C 52.336 276.376,50.580 276.741,47.545 277.225 C 44.343 277.735,44.343 277.736,45.916 274.656 C 53.058 260.665,61.507 239.370,64.853 226.929 C 65.169 225.755,65.548 224.425,65.697 223.974 C 67.277 219.162,69.282 206.636,69.385 200.933 L 69.458 196.880 67.289 194.089 C 41.959 161.485,36.436 116.962,53.113 79.803 C 63.731 56.146,80.620 37.692,106.568 21.395 C 112.743 17.517,123.413 12.340,133.005 8.569 L 137.110 6.955 195.292 6.926 L 253.474 6.897 257.361 8.389 M166.338 62.876 C 149.110 67.210,137.506 80.128,134.784 98.005 C 134.174 102.010,134.113 129.384,134.713 129.984 C 135.130 130.401,172.796 130.589,173.865 130.178 C 174.317 130.005,174.748 92.580,174.302 92.215 C 174.257 92.178,170.673 92.068,166.338 91.969 L 158.456 91.790 158.355 90.561 C 157.857 84.550,164.223 75.553,171.546 71.921 C 174.006 70.701,174.017 70.602,172.131 66.499 C 170.026 61.917,170.062 61.940,166.338 62.876 M221.346 63.188 C 208.159 67.180,198.650 75.497,193.786 87.295 C 192.786 89.719,192.218 91.723,191.255 96.223 C 190.600 99.286,190.182 127.944,190.770 129.475 L 191.117 130.378 210.599 130.378 C 225.315 130.378,230.179 130.281,230.476 129.984 C 231.045 129.415,231.045 92.917,230.476 92.348 C 230.193 92.065,227.989 91.954,222.635 91.954 C 214.069 91.954,214.228 92.006,214.584 89.321 C 215.515 82.298,220.666 75.547,227.833 71.955 C 230.254 70.742,230.245 70.796,228.607 66.997 C 226.376 61.822,226.186 61.723,221.346 63.188 M171.371 65.846 C 173.478 70.149,173.439 70.436,170.512 72.066 C 163.662 75.880,159.427 81.613,157.956 89.061 C 157.297 92.400,156.936 92.255,166.127 92.359 L 173.892 92.447 173.977 110.837 C 174.057 127.835,174.021 129.259,173.504 129.639 C 172.802 130.155,136.833 130.240,135.489 129.729 L 134.647 129.409 134.650 116.839 C 134.652 104.853,134.945 98.426,135.622 95.447 C 136.745 90.507,137.190 89.108,138.662 85.878 C 143.431 75.418,151.606 68.266,163.473 64.172 C 169.416 62.122,169.564 62.154,171.371 65.846 M227.529 65.636 C 229.918 70.776,229.933 70.412,227.271 71.754 C 220.330 75.256,214.944 82.529,214.230 89.367 C 213.915 92.378,213.649 92.282,222.306 92.282 C 227.661 92.282,229.864 92.393,230.148 92.677 C 230.642 93.171,230.712 128.615,230.221 129.392 C 229.898 129.902,194.802 130.357,192.200 129.885 L 191.133 129.691 191.139 114.681 C 191.147 93.768,192.135 88.872,198.128 80.040 C 202.216 74.017,211.163 66.855,216.585 65.266 C 216.946 65.160,218.719 64.555,220.525 63.921 C 225.738 62.091,225.901 62.131,227.529 65.636 M269.622 139.439 C 216.226 144.014,176.653 176.770,172.684 219.676 C 167.201 278.950,227.867 324.458,297.701 313.457 C 299.507 313.172,301.798 312.814,302.791 312.662 C 303.785 312.509,305.902 312.073,307.497 311.693 C 311.530 310.731,311.549 310.735,316.547 313.264 C 321.816 315.930,326.365 317.821,334.008 320.522 L 339.593 322.496 357.790 322.496 C 369.299 322.496,376.060 322.378,376.186 322.175 C 376.295 321.998,375.947 320.853,375.411 319.629 C 368.848 304.634,364.215 287.980,364.206 279.354 C 364.204 277.133,364.231 277.063,365.983 274.734 C 382.721 252.495,386.472 225.648,376.587 198.851 C 365.342 168.365,330.584 144.657,290.148 139.890 C 287.136 139.535,272.305 139.209,269.622 139.439 M286.371 140.075 C 297.049 140.973,309.675 143.384,314.714 145.487 C 315.111 145.653,317.282 146.447,319.540 147.253 C 321.798 148.058,324.935 149.320,326.512 150.057 C 328.088 150.793,329.449 151.396,329.536 151.396 C 330.191 151.396,341.143 157.849,344.499 160.213 C 368.446 177.076,381.366 200.476,381.427 227.094 C 381.445 234.832,381.332 236.158,380.083 242.857 C 378.055 253.737,372.741 265.178,364.906 275.534 L 363.787 277.011 363.961 280.952 C 364.293 288.455,368.094 303.298,372.078 312.644 C 374.094 317.372,375.698 321.418,375.698 321.772 C 375.698 322.091,371.774 322.160,357.389 322.091 L 339.080 322.003 334.483 320.316 C 324.818 316.769,315.791 312.870,313.548 311.272 C 312.310 310.391,310.726 310.404,307.225 311.325 C 291.719 315.401,265.541 315.601,248.933 311.770 C 208.544 302.454,180.845 275.698,173.511 238.916 C 172.690 234.796,172.676 219.928,173.489 215.764 C 175.536 205.284,177.696 198.859,181.661 191.456 C 192.384 171.431,211.065 156.012,235.591 146.943 C 239.347 145.555,240.552 145.183,246.798 143.487 C 258.680 140.261,273.445 138.988,286.371 140.075 M233.004 199.463 C 232.131 200.796,232.424 235.336,233.314 235.987 C 233.819 236.357,235.470 236.453,241.278 236.453 L 248.604 236.453 248.604 237.422 C 248.604 243.666,243.745 250.769,236.710 254.806 C 233.365 256.727,233.362 256.739,235.440 261.188 C 237.281 265.131,237.497 265.302,239.861 264.696 C 256.359 260.472,268.055 248.867,271.084 233.717 C 272.312 227.573,272.826 200.294,271.734 199.202 C 271.276 198.745,269.066 198.686,252.365 198.686 L 233.513 198.686 233.004 199.463 M287.750 199.080 C 286.973 199.858,287.207 235.693,287.992 236.113 C 288.373 236.317,291.458 236.453,295.719 236.453 C 303.956 236.453,303.449 236.181,302.478 240.085 C 300.743 247.055,296.691 251.998,289.930 255.394 C 287.667 256.531,287.658 256.950,289.795 261.326 L 291.643 265.112 293.030 264.917 C 309.693 262.580,323.561 247.821,326.101 229.721 C 326.590 226.241,326.539 199.576,326.043 199.080 C 325.474 198.512,288.319 198.512,287.750 199.080 M271.264 199.336 C 272.585 200.170,271.933 228.597,270.456 234.563 C 266.822 249.240,256.378 259.730,241.278 263.868 C 237.597 264.877,237.645 264.903,235.726 260.833 C 233.902 256.968,233.907 256.792,235.862 255.798 C 243.320 252.006,248.863 244.262,248.921 237.557 C 248.936 235.803,248.690 235.753,240.261 235.818 C 236.750 235.845,233.718 235.768,233.523 235.648 C 232.990 235.319,233.030 199.942,233.563 199.409 C 234.057 198.915,270.486 198.844,271.264 199.336 M325.586 199.445 C 326.535 200.139,326.183 228.279,325.168 232.841 C 321.695 248.449,311.668 259.196,296.502 263.561 C 291.730 264.935,291.966 265.036,289.970 260.759 C 288.153 256.868,288.165 256.754,290.489 255.616 C 296.478 252.683,301.004 247.150,302.816 240.546 C 304.122 235.784,304.068 235.752,294.889 235.845 C 291.355 235.881,288.288 235.802,288.074 235.670 C 287.509 235.321,287.514 199.974,288.079 199.409 C 288.679 198.809,324.764 198.844,325.586 199.445 " stroke="none" fill="#747474" fill-rule="evenodd"></path>
        <path id="path3" d="M133.169 7.528 C 126.258 10.184,124.507 10.956,117.449 14.456 C 110.315 17.995,109.241 18.589,103.284 22.298 C 99.455 24.682,95.830 27.258,88.699 32.664 C 86.248 34.523,78.675 41.601,75.228 45.256 C 58.439 63.054,47.036 85.553,43.987 106.897 C 41.660 123.185,41.846 131.630,44.883 147.619 C 47.972 163.886,55.831 180.839,67.019 195.369 C 68.900 197.811,68.885 197.685,68.153 204.961 C 66.688 219.510,60.320 241.213,52.669 257.730 C 52.059 259.047,51.560 260.204,51.560 260.303 C 51.560 260.541,48.041 268.117,45.591 273.155 C 42.698 279.101,42.914 279.332,49.918 277.785 C 51.634 277.405,53.407 277.031,53.859 276.951 C 57.421 276.327,60.672 275.622,65.025 274.529 C 66.560 274.144,68.478 273.693,69.287 273.527 C 71.058 273.165,75.401 272.075,77.679 271.422 C 78.588 271.161,81.026 270.510,83.098 269.975 C 94.824 266.945,111.454 261.636,121.675 257.659 C 130.351 254.283,140.699 249.448,144.007 247.226 C 145.942 245.926,145.884 246.535,144.868 238.095 C 144.112 231.811,143.968 224.199,144.508 219.071 C 145.052 213.910,145.047 213.908,139.130 217.129 C 131.096 221.501,122.864 225.561,117.570 227.760 C 116.396 228.248,114.844 228.918,114.122 229.250 C 109.351 231.437,92.441 237.378,92.062 236.999 C 91.979 236.916,92.821 233.915,93.933 230.329 C 95.045 226.743,96.300 222.479,96.722 220.854 C 97.143 219.228,97.952 216.125,98.519 213.957 C 99.086 211.790,99.674 209.351,99.826 208.539 C 100.145 206.836,100.992 202.559,101.484 200.164 C 103.726 189.258,103.731 189.315,100.242 185.680 C 75.420 159.818,68.018 132.574,77.230 100.985 C 87.001 67.475,125.955 36.663,167.156 29.854 C 179.664 27.787,183.454 27.464,195.402 27.448 C 202.603 27.439,207.539 27.581,209.688 27.860 C 222.878 29.573,223.026 29.599,231.527 31.711 C 247.347 35.642,264.260 43.119,274.968 50.916 C 296.912 66.894,310.314 85.267,315.085 105.911 C 315.377 107.176,315.754 108.801,315.923 109.524 C 316.092 110.246,316.410 111.925,316.631 113.255 C 317.167 116.491,317.418 116.721,321.839 118.025 C 325.793 119.192,332.779 121.711,335.304 122.880 C 336.117 123.256,338.038 124.125,339.573 124.810 C 341.108 125.495,343.399 126.584,344.663 127.230 C 347.315 128.586,347.637 128.636,348.100 127.772 C 349.366 125.407,347.443 106.125,345.102 97.701 C 344.750 96.437,344.174 94.294,343.821 92.939 C 340.331 79.548,330.427 61.805,319.533 49.425 C 308.498 36.887,298.165 28.503,281.536 18.594 C 278.821 16.976,267.756 11.504,264.860 10.346 C 263.596 9.841,261.970 9.160,261.248 8.832 C 260.525 8.505,258.678 7.788,257.143 7.240 L 254.351 6.243 195.402 6.255 L 136.453 6.266 133.169 7.528 M260.572 9.062 C 267.084 11.656,275.032 15.408,279.768 18.124 C 281.284 18.993,282.578 19.704,282.644 19.704 C 283.421 19.704,295.647 28.029,300.657 31.968 C 330.420 55.375,347.786 88.774,347.929 122.889 C 347.952 128.450,347.932 128.477,344.961 126.914 C 339.325 123.948,328.728 119.665,321.429 117.405 C 318.215 116.409,317.546 116.090,317.425 115.494 C 317.345 115.100,317.109 113.744,316.899 112.479 C 310.204 72.083,271.145 37.407,223.317 29.399 C 221.601 29.112,219.384 28.737,218.391 28.566 C 193.830 24.343,161.105 28.198,139.080 37.910 C 137.997 38.388,136.671 38.958,136.135 39.176 C 132.515 40.650,122.667 45.931,119.302 48.203 C 118.801 48.541,117.652 49.315,116.749 49.923 C 85.315 71.081,69.388 103.291,73.880 136.617 C 76.212 153.914,83.041 167.314,97.880 183.711 L 102.903 189.261 102.326 192.906 C 101.770 196.427,101.071 200.241,99.974 205.747 C 98.616 212.563,94.204 228.710,91.992 234.960 C 90.876 238.112,91.343 238.119,100.000 235.074 C 113.264 230.408,125.417 225.027,137.848 218.316 C 140.783 216.731,143.371 215.435,143.599 215.435 C 143.925 215.435,144.013 217.678,144.010 225.862 C 144.007 234.325,144.125 237.167,144.637 240.950 C 145.368 246.351,145.482 246.023,142.251 247.844 C 131.992 253.628,114.430 260.418,94.417 266.339 C 83.439 269.587,74.848 271.820,59.770 275.343 C 56.017 276.220,45.943 278.161,45.145 278.161 C 43.810 278.161,43.880 277.527,45.590 274.104 C 59.729 245.792,68.931 216.302,68.962 199.199 C 68.965 197.293,68.914 197.182,66.706 194.273 C 63.790 190.432,59.720 184.362,58.225 181.625 C 57.579 180.442,56.670 178.810,56.204 177.997 C 55.299 176.417,50.903 166.931,50.903 166.557 C 50.903 166.434,50.386 165.016,49.753 163.404 C 38.902 135.765,41.542 98.043,56.126 72.342 C 56.866 71.038,57.471 69.908,57.471 69.830 C 57.471 69.504,62.078 62.313,64.128 59.439 C 80.742 36.146,106.413 17.351,135.796 6.968 C 136.475 6.728,155.052 6.612,195.547 6.594 L 254.313 6.568 260.572 9.062 M166.010 62.353 C 148.806 66.689,136.764 80.157,134.176 97.957 C 133.415 103.196,133.416 129.756,134.178 130.518 C 134.963 131.303,173.740 131.303,174.525 130.518 C 175.332 129.711,175.307 92.584,174.499 91.912 C 174.082 91.566,172.215 91.438,166.453 91.362 L 158.949 91.263 158.949 90.035 C 158.949 83.939,164.996 75.697,171.925 72.348 C 174.741 70.987,174.759 70.894,172.960 66.943 C 170.333 61.172,170.433 61.238,166.010 62.353 M222.012 62.411 C 210.498 65.462,200.575 73.028,195.311 82.773 C 193.864 85.451,192.629 88.394,192.082 90.468 C 191.938 91.014,191.497 92.644,191.101 94.089 C 190.074 97.845,189.703 129.897,190.679 130.611 C 191.137 130.946,195.373 131.034,210.882 131.034 L 230.505 131.034 231.016 130.305 C 231.818 129.160,231.788 92.580,230.985 91.912 C 230.567 91.565,228.676 91.439,222.775 91.362 L 215.107 91.263 215.111 90.049 C 215.131 83.814,221.624 75.175,228.494 72.245 C 231.145 71.115,231.090 70.586,227.586 63.553 C 226.594 61.560,225.822 61.402,222.012 62.411 M170.358 62.479 C 171.098 63.417,173.750 69.795,173.660 70.421 C 173.595 70.879,172.920 71.424,171.593 72.093 C 164.734 75.550,159.948 81.702,158.631 88.755 C 158.007 92.096,157.659 91.954,166.477 91.954 C 171.832 91.954,174.035 92.065,174.319 92.348 C 174.616 92.645,174.713 97.287,174.713 111.224 L 174.713 129.706 173.937 130.214 C 172.579 131.104,135.109 130.792,134.432 129.885 C 133.837 129.087,134.003 101.213,134.625 97.551 C 137.271 81.969,146.007 70.765,160.134 64.835 C 165.399 62.625,169.693 61.636,170.358 62.479 M226.778 62.863 C 227.064 63.300,227.960 65.162,228.770 67.000 C 230.469 70.863,230.489 70.785,227.442 72.322 C 220.390 75.878,214.798 83.700,214.782 90.031 C 214.777 92.022,214.483 91.954,223.168 91.954 C 230.158 91.954,230.536 91.986,230.867 92.604 C 231.416 93.631,231.168 129.555,230.608 130.115 C 229.922 130.800,191.237 130.736,190.784 130.049 C 190.084 128.991,190.614 97.748,191.386 94.552 C 195.314 78.280,206.077 67.136,222.003 62.851 C 225.584 61.888,226.140 61.889,226.778 62.863 M270.279 138.774 C 265.125 139.196,260.781 139.716,257.635 140.288 C 255.649 140.649,253.284 141.064,252.381 141.211 C 247.788 141.957,235.554 145.559,232.833 146.966 C 232.323 147.230,231.193 147.687,230.321 147.982 C 209.222 155.120,187.689 175.362,177.705 197.446 C 162.435 231.217,176.481 273.046,211.002 296.606 C 222.160 304.222,238.231 310.927,250.246 312.979 C 251.059 313.118,253.276 313.528,255.172 313.890 C 261.577 315.113,266.093 315.435,276.847 315.435 C 287.367 315.435,289.956 315.250,298.194 313.910 C 304.670 312.857,305.735 312.667,308.703 312.033 L 311.494 311.437 315.271 313.328 C 321.450 316.423,326.557 318.515,335.288 321.527 L 339.050 322.824 357.662 322.824 C 373.307 322.824,376.336 322.750,376.660 322.360 C 376.965 321.992,376.705 321.117,375.416 318.172 C 367.371 299.801,362.842 279.764,365.846 275.842 C 368.300 272.638,368.763 271.981,370.453 269.294 C 375.802 260.789,378.718 253.407,381.282 241.878 C 383.045 233.952,382.957 220.147,381.092 211.987 C 380.802 210.722,380.440 209.097,380.287 208.374 C 373.706 177.422,339.114 147.699,302.135 141.222 C 301.141 141.048,299.072 140.673,297.537 140.388 C 290.743 139.126,276.372 138.276,270.279 138.774 M289.655 139.723 C 328.327 143.973,360.300 164.475,374.693 194.253 C 376.584 198.164,379.349 205.702,379.933 208.539 C 380.101 209.351,380.482 211.199,380.780 212.644 C 385.088 233.518,379.790 256.422,366.537 274.220 L 364.214 277.340 364.393 280.131 C 365.056 290.476,368.834 304.042,375.059 318.430 C 375.772 320.077,376.355 321.666,376.355 321.960 C 376.355 322.449,374.738 322.496,357.810 322.496 L 339.265 322.496 333.590 320.494 C 326.091 317.848,321.654 316.004,316.130 313.237 L 311.569 310.953 307.755 311.777 C 304.308 312.522,301.123 313.085,295.402 313.963 C 263.981 318.785,229.795 310.745,206.897 293.147 C 168.731 263.816,161.032 216.334,188.514 179.776 C 209.585 151.747,250.746 135.447,289.655 139.723 M233.566 199.735 C 233.044 200.256,232.990 234.191,233.509 235.161 C 233.830 235.760,234.268 235.796,241.186 235.796 C 250.078 235.796,249.655 235.585,248.824 239.622 C 247.340 246.835,243.140 252.073,235.511 256.224 C 234.156 256.962,234.204 257.400,236.044 261.084 L 237.603 264.204 238.836 264.166 C 247.875 263.891,261.027 254.392,266.752 244.007 C 270.742 236.766,271.372 232.788,271.403 214.614 L 271.429 199.507 252.696 199.423 C 238.399 199.358,233.869 199.432,233.566 199.735 M287.885 199.860 C 287.524 200.801,287.657 234.474,288.025 235.161 C 288.345 235.759,288.780 235.796,295.387 235.796 C 303.712 235.796,303.449 235.734,303.446 237.720 C 303.435 244.185,297.428 252.356,289.930 256.104 C 288.402 256.867,288.428 257.280,290.241 260.956 L 291.843 264.204 293.339 264.128 C 296.908 263.947,304.864 260.505,309.524 257.126 C 317.415 251.405,322.395 243.843,324.736 234.029 L 325.607 230.378 325.612 214.943 L 325.616 199.507 306.851 199.423 C 289.952 199.346,288.066 199.390,287.885 199.860 M271.067 214.614 C 271.031 230.520,271.000 230.885,269.137 237.110 C 265.259 250.065,251.064 262.711,239.219 263.761 L 237.931 263.875 236.373 260.755 C 234.474 256.955,234.474 256.936,236.207 256.193 C 240.862 254.196,246.425 248.437,247.998 243.985 C 251.007 235.467,250.925 235.359,241.248 235.140 L 233.990 234.975 233.905 217.734 C 233.858 208.251,233.891 200.307,233.978 200.079 C 234.103 199.753,238.007 199.684,252.618 199.751 L 271.100 199.836 271.067 214.614 M325.260 214.778 C 325.232 229.560,325.223 229.764,324.382 233.703 C 321.501 247.189,311.766 257.871,298.108 262.534 C 292.379 264.489,292.291 264.465,290.446 260.368 C 288.868 256.862,288.838 257.073,291.074 255.941 C 298.260 252.306,304.148 243.622,303.722 237.286 C 303.581 235.183,303.360 235.130,294.959 235.191 C 289.840 235.227,288.548 235.147,288.314 234.777 C 287.991 234.268,287.895 201.018,288.214 200.188 C 288.394 199.718,290.252 199.675,306.851 199.751 L 325.287 199.836 325.260 214.778 " stroke="none" fill="#9c9c9c" fill-rule="evenodd"></path>
        <path id="path4" d="M144.810 75.452 L 143.678 76.683 144.910 75.551 C 145.587 74.929,146.141 74.375,146.141 74.320 C 146.141 74.069,145.863 74.305,144.810 75.452 M221.000 76.765 L 219.869 77.997 221.100 76.865 C 222.246 75.812,222.483 75.534,222.232 75.534 C 222.177 75.534,221.623 76.088,221.000 76.765 M174.538 111.002 C 174.538 121.026,174.579 125.127,174.630 120.115 C 174.681 115.103,174.681 106.901,174.630 101.888 C 174.579 96.876,174.538 100.977,174.538 111.002 M43.159 125.123 C 43.159 128.645,43.207 130.086,43.266 128.325 C 43.325 126.564,43.325 123.682,43.266 121.921 C 43.207 120.160,43.159 121.601,43.159 125.123 M269.376 139.471 C 269.692 139.554,270.209 139.554,270.525 139.471 C 270.842 139.388,270.583 139.321,269.951 139.321 C 269.319 139.321,269.060 139.388,269.376 139.471 M283.826 139.471 C 284.142 139.554,284.659 139.554,284.975 139.471 C 285.291 139.388,285.033 139.321,284.401 139.321 C 283.768 139.321,283.510 139.388,283.826 139.471 M271.741 211.658 C 271.741 217.980,271.785 220.520,271.839 217.302 C 271.892 214.085,271.892 208.912,271.838 205.808 C 271.785 202.704,271.741 205.337,271.741 211.658 M242.365 251.067 C 241.567 251.880,240.988 252.545,241.078 252.545 C 241.169 252.545,241.895 251.880,242.693 251.067 C 243.491 250.255,244.069 249.589,243.979 249.589 C 243.889 249.589,243.162 250.255,242.365 251.067 M273.481 315.187 C 275.152 315.247,277.886 315.247,279.557 315.187 C 281.227 315.128,279.860 315.079,276.519 315.079 C 273.177 315.079,271.810 315.128,273.481 315.187 " stroke="none" fill="#7c7c7c" fill-rule="evenodd"></path>
        <path id="path5" d="M192.546 26.846 C 194.316 26.905,197.124 26.905,198.786 26.845 C 200.447 26.786,198.998 26.738,195.567 26.738 C 192.135 26.738,190.775 26.787,192.546 26.846 M313.300 43.514 C 315.009 45.230,316.481 46.634,316.572 46.634 C 316.662 46.634,315.338 45.230,313.629 43.514 C 311.920 41.798,310.448 40.394,310.358 40.394 C 310.267 40.394,311.592 41.798,313.300 43.514 M287.999 60.837 C 288.805 61.695,289.507 62.397,289.559 62.397 C 289.806 62.397,289.545 62.103,288.095 60.742 L 286.535 59.278 287.999 60.837 M200.800 75.616 L 199.836 76.683 200.903 75.719 C 201.490 75.188,201.970 74.708,201.970 74.651 C 201.970 74.397,201.699 74.621,200.800 75.616 M231.024 111.002 C 231.024 121.026,231.065 125.127,231.116 120.115 C 231.167 115.103,231.167 106.901,231.116 101.888 C 231.065 96.876,231.024 100.977,231.024 111.002 M134.140 116.092 C 134.140 123.498,134.183 126.574,134.236 122.928 C 134.289 119.283,134.289 113.224,134.236 109.464 C 134.183 105.704,134.140 108.686,134.140 116.092 M347.903 123.317 C 347.904 125.123,347.959 125.820,348.026 124.866 C 348.092 123.912,348.092 122.434,348.024 121.582 C 347.957 120.730,347.902 121.511,347.903 123.317 M73.031 125.123 C 73.031 127.200,73.084 128.050,73.149 127.011 C 73.214 125.973,73.214 124.273,73.149 123.235 C 73.084 122.196,73.031 123.046,73.031 125.123 M145.097 130.624 C 150.393 130.675,158.965 130.675,164.145 130.624 C 169.325 130.573,164.992 130.531,154.516 130.531 C 144.039 130.532,139.801 130.573,145.097 130.624 M201.255 130.624 C 206.551 130.675,215.123 130.675,220.303 130.624 C 225.483 130.573,221.149 130.531,210.673 130.531 C 200.197 130.532,195.959 130.573,201.255 130.624 M274.795 139.160 C 276.104 139.222,278.247 139.222,279.557 139.160 C 280.866 139.098,279.795 139.047,277.176 139.047 C 274.557 139.047,273.485 139.098,274.795 139.160 M352.709 165.948 C 352.709 166.005,353.190 166.485,353.777 167.016 L 354.844 167.980 353.879 166.913 C 352.980 165.918,352.709 165.695,352.709 165.948 M94.581 180.398 C 94.581 180.455,95.062 180.935,95.649 181.466 L 96.716 182.430 95.751 181.363 C 94.852 180.368,94.581 180.145,94.581 180.398 M243.268 199.261 C 248.370 199.312,256.720 199.312,261.823 199.261 C 266.925 199.210,262.750 199.168,252.545 199.168 C 242.340 199.168,238.165 199.210,243.268 199.261 M297.455 199.261 C 302.557 199.312,310.907 199.312,316.010 199.261 C 321.112 199.210,316.938 199.168,306.732 199.168 C 296.527 199.168,292.352 199.210,297.455 199.261 M325.929 212.808 C 325.929 219.943,325.973 222.861,326.026 219.294 C 326.079 215.727,326.079 209.889,326.026 206.322 C 325.973 202.755,325.929 205.673,325.929 212.808 M68.713 203.284 C 68.713 203.916,68.781 204.175,68.863 203.859 C 68.946 203.543,68.946 203.025,68.863 202.709 C 68.781 202.393,68.713 202.652,68.713 203.284 M382.071 227.422 C 382.071 230.312,382.121 231.450,382.182 229.952 C 382.243 228.453,382.243 226.088,382.181 224.697 C 382.120 223.306,382.070 224.532,382.071 227.422 M172.212 227.258 C 172.212 229.516,172.264 230.439,172.329 229.310 C 172.393 228.181,172.393 226.334,172.329 225.205 C 172.264 224.076,172.212 225.000,172.212 227.258 M271.363 226.601 C 271.363 227.594,271.424 228.001,271.500 227.504 C 271.575 227.007,271.575 226.195,271.500 225.698 C 271.424 225.201,271.363 225.608,271.363 226.601 M143.919 235.468 C 143.919 236.100,143.986 236.359,144.069 236.043 C 144.151 235.727,144.151 235.209,144.069 234.893 C 143.986 234.577,143.919 234.836,143.919 235.468 M314.440 252.956 L 312.479 255.008 314.532 253.048 C 315.661 251.970,316.585 251.046,316.585 250.996 C 316.585 250.753,316.260 251.049,314.440 252.956 M364.298 280.624 C 364.300 281.527,364.364 281.858,364.439 281.358 C 364.515 280.859,364.513 280.120,364.435 279.716 C 364.357 279.312,364.295 279.721,364.298 280.624 " stroke="none" fill="#848484" fill-rule="evenodd"></path>
    </g>
</svg>