<svg id="svg" version="1.1" xmlns="http://www.w3.org/2000/svg" xmlns:xlink="http://www.w3.org/1999/xlink" width="400" height="333.33333333333337" viewBox="0, 0, 400,333.33333333333337">
    <g id="svgg">
        <path id="path0" d="M224.988 17.946 C 216.296 21.017,212.462 28.530,210.671 46.000 C 210.040 52.151,208.647 60.689,208.033 62.167 C 207.881 62.533,207.216 64.483,206.556 66.500 C 204.595 72.491,203.851 74.387,201.122 80.333 C 200.244 82.246,200.095 82.580,198.286 86.667 C 197.072 89.409,194.155 95.161,193.045 97.000 C 192.658 97.642,192.188 98.467,191.999 98.833 C 191.811 99.200,191.369 99.950,191.018 100.500 C 190.667 101.050,189.899 102.400,189.312 103.500 C 188.725 104.600,187.102 107.200,185.705 109.279 C 184.309 111.357,182.998 113.353,182.792 113.715 C 182.587 114.078,182.062 114.777,181.626 115.270 C 181.190 115.763,180.683 116.411,180.500 116.711 C 175.703 124.538,161.800 139.296,154.701 144.096 C 153.674 144.791,152.608 145.545,152.333 145.772 C 151.382 146.556,147.826 148.610,145.891 149.491 C 143.602 150.534,142.573 150.196,142.155 148.261 C 141.886 147.019,140.674 144.512,139.377 142.517 C 135.802 137.014,131.041 133.742,124.182 132.072 C 120.508 131.177,90.100 131.213,87.167 132.115 C 83.318 133.298,82.460 133.618,80.897 134.449 C 76.945 136.550,70.667 143.268,70.667 145.395 C 70.667 145.654,70.486 146.047,70.265 146.268 C 68.359 148.174,68.306 150.418,68.420 224.843 L 68.524 293.500 69.387 295.667 C 69.862 296.858,70.367 298.133,70.509 298.500 C 72.351 303.236,79.266 309.420,84.612 311.112 C 89.894 312.784,88.735 312.706,106.333 312.573 C 123.284 312.444,124.442 312.359,127.500 311.021 C 128.050 310.781,128.875 310.419,129.333 310.218 C 132.711 308.738,137.164 304.942,139.132 301.864 C 140.450 299.804,142.333 295.837,142.333 295.121 C 142.333 294.847,142.521 294.295,142.750 293.895 C 143.032 293.403,143.221 290.843,143.333 286.004 C 143.542 277.038,143.495 277.077,147.507 282.500 C 151.412 287.778,151.337 287.689,155.507 291.833 C 159.993 296.290,167.329 302.034,170.333 303.441 C 170.608 303.570,171.494 304.048,172.302 304.504 C 173.110 304.960,173.901 305.333,174.059 305.333 C 174.218 305.333,175.282 305.769,176.424 306.302 C 181.515 308.677,188.968 310.868,196.000 312.058 C 197.946 312.387,213.195 312.504,264.833 312.587 C 336.630 312.702,330.882 312.821,336.500 311.091 C 339.592 310.138,345.627 306.502,347.498 304.464 C 348.759 303.090,349.667 301.995,349.667 301.848 C 349.667 301.766,350.096 301.055,350.621 300.267 C 357.781 289.515,356.526 274.342,347.776 265.843 C 346.638 264.738,346.353 263.000,347.311 263.000 C 348.447 263.000,354.491 257.730,356.677 254.833 C 363.508 245.780,363.643 231.048,356.972 222.603 C 356.437 221.926,356.000 221.288,356.000 221.185 C 356.000 221.082,355.400 220.456,354.667 219.794 C 352.645 217.967,352.819 217.404,356.083 215.231 C 359.566 212.912,363.878 208.342,365.201 205.569 C 365.525 204.889,365.912 204.333,366.062 204.333 C 366.211 204.333,366.333 204.094,366.333 203.800 C 366.333 203.507,366.542 202.795,366.798 202.217 C 368.186 199.080,368.441 197.542,368.448 192.270 C 368.460 183.763,366.396 178.741,360.419 172.730 C 356.807 169.097,356.691 168.678,358.809 166.908 C 361.086 165.004,366.333 158.185,366.333 157.129 C 366.333 157.022,366.543 156.461,366.800 155.884 C 370.820 146.827,368.042 133.460,360.669 126.377 C 357.696 123.522,351.580 119.667,350.023 119.667 C 349.717 119.667,349.319 119.519,349.139 119.339 C 348.135 118.335,344.071 118.219,303.000 118.027 C 280.175 117.921,261.327 117.721,261.115 117.583 C 260.617 117.260,260.906 116.160,261.913 114.551 C 262.866 113.028,265.667 107.141,265.667 106.660 C 265.667 106.475,265.811 106.064,265.986 105.745 C 266.757 104.351,268.608 98.130,269.505 93.921 C 271.927 82.560,272.197 74.065,270.461 63.841 C 269.754 59.674,267.370 50.259,266.905 49.794 C 266.774 49.663,266.666 49.318,266.665 49.028 C 266.663 48.737,266.438 48.070,266.165 47.545 C 265.891 47.020,265.667 46.443,265.667 46.262 C 265.667 44.362,259.717 33.930,256.407 30.026 C 248.008 20.122,234.036 14.750,224.988 17.946 M233.833 26.347 C 239.301 27.264,243.221 29.320,247.529 33.532 C 250.941 36.868,252.714 39.279,254.613 43.167 C 259.082 52.315,261.013 58.393,262.029 66.500 C 262.213 67.967,262.525 70.370,262.723 71.840 C 263.449 77.221,262.380 87.611,260.326 95.157 C 259.221 99.217,259.150 99.422,257.322 103.833 C 255.349 108.592,252.273 114.228,249.716 117.767 C 247.331 121.068,246.913 122.513,247.801 124.385 C 249.062 127.042,244.686 126.811,297.500 127.017 C 330.670 127.147,344.843 127.311,345.667 127.573 C 346.308 127.777,347.283 128.092,347.833 128.273 C 351.502 129.477,355.151 132.562,357.088 136.095 C 357.595 137.020,358.132 137.939,358.283 138.138 C 359.882 140.249,360.390 149.732,358.981 151.150 C 358.808 151.324,358.660 151.774,358.652 152.150 C 358.644 152.526,358.271 153.433,357.822 154.167 C 357.374 154.900,356.860 155.836,356.680 156.247 C 356.108 157.551,352.235 161.131,350.333 162.113 C 346.148 164.274,345.407 164.348,327.000 164.435 C 313.802 164.497,313.114 164.531,312.025 165.171 C 308.712 167.117,309.024 171.510,312.584 173.036 C 313.981 173.635,315.020 173.673,329.353 173.660 C 343.706 173.646,346.007 173.735,346.833 174.333 C 347.017 174.466,347.605 174.680,348.140 174.808 C 352.295 175.804,357.081 181.045,359.062 186.771 C 362.033 195.354,356.695 206.385,347.991 209.651 C 345.456 210.602,342.800 210.751,324.825 210.955 L 306.149 211.167 305.158 211.945 C 302.521 214.014,302.747 217.323,305.650 219.156 L 306.948 219.976 323.124 220.071 C 335.516 220.144,339.398 220.264,339.717 220.583 C 339.946 220.813,340.420 221.000,340.770 221.000 C 342.038 221.000,345.548 223.197,347.679 225.324 C 356.745 234.374,354.395 249.462,343.025 255.206 C 339.373 257.052,339.102 257.075,318.589 257.296 L 299.677 257.500 298.476 258.702 C 296.481 260.697,296.749 263.665,299.078 265.352 L 300.433 266.333 315.978 266.333 C 333.120 266.333,332.584 266.277,336.997 268.559 C 340.411 270.324,344.808 275.516,345.560 278.667 C 345.669 279.125,345.913 279.696,346.102 279.935 C 346.741 280.744,346.573 288.272,345.867 290.476 C 344.184 295.728,339.856 300.430,335.001 302.278 C 333.908 302.694,332.689 302.986,329.535 303.586 C 327.568 303.961,200.055 303.484,196.500 303.089 C 194.850 302.905,192.825 302.574,192.000 302.352 C 191.175 302.131,189.600 301.717,188.500 301.434 C 184.307 300.351,177.840 297.636,174.833 295.694 C 174.100 295.221,173.350 294.758,173.167 294.665 C 167.769 291.945,158.069 282.958,155.000 277.833 C 154.561 277.100,154.118 276.425,154.014 276.333 C 153.777 276.122,151.966 273.384,151.480 272.500 C 151.278 272.133,150.651 271.008,150.087 270.000 C 147.392 265.183,145.037 257.401,143.935 249.667 C 143.402 245.927,143.150 160.966,143.669 159.996 C 143.857 159.644,144.641 159.186,145.411 158.979 C 148.248 158.215,153.427 155.717,156.055 153.845 C 157.093 153.105,158.985 151.779,160.259 150.897 C 165.006 147.614,176.406 136.457,181.667 129.947 C 183.702 127.428,189.721 119.196,190.189 118.290 C 190.461 117.764,190.803 117.333,190.949 117.333 C 191.096 117.333,191.547 116.696,191.953 115.917 C 192.359 115.138,193.583 113.150,194.673 111.500 C 195.763 109.850,196.761 108.275,196.891 108.000 C 197.020 107.725,197.943 106.150,198.941 104.500 C 201.158 100.836,209.002 84.899,210.424 81.167 C 210.704 80.433,211.323 78.886,211.800 77.728 C 212.277 76.570,212.667 75.468,212.667 75.278 C 212.667 75.089,212.872 74.461,213.122 73.884 C 213.716 72.513,215.112 68.650,215.850 66.333 C 216.172 65.325,216.637 64.027,216.884 63.450 C 217.131 62.872,217.335 62.047,217.337 61.616 C 217.339 61.186,217.564 60.097,217.837 59.197 C 218.110 58.297,218.333 56.844,218.333 55.969 C 218.333 55.093,218.492 53.959,218.686 53.449 C 218.880 52.938,219.183 50.791,219.358 48.677 C 220.364 36.568,221.914 30.759,224.897 27.924 C 225.989 26.887,229.424 25.639,230.667 25.828 C 231.125 25.898,232.550 26.131,233.833 26.347 M121.000 140.349 C 127.340 141.355,131.713 145.034,133.857 151.167 C 134.399 152.715,134.582 292.140,134.043 292.473 C 133.883 292.572,133.662 293.108,133.551 293.664 C 132.798 297.428,127.962 301.824,123.167 303.104 C 121.186 303.633,92.027 303.818,89.667 303.317 C 83.620 302.033,80.656 299.428,77.849 292.931 C 76.963 290.880,77.066 153.233,77.956 150.707 C 78.293 149.748,78.742 148.792,78.952 148.582 C 79.162 148.372,79.333 148.027,79.333 147.815 C 79.333 145.770,85.807 141.235,89.757 140.513 C 92.772 139.961,117.734 139.831,121.000 140.349 " stroke="none" fill="#292929" fill-rule="evenodd"></path>
        <path id="path1" d="M0.000 166.667 L 0.000 333.333 200.000 333.333 L 400.000 333.333 400.000 166.667 L 400.000 0.000 200.000 0.000 L 0.000 0.000 0.000 166.667 M237.759 17.020 C 250.191 20.135,259.113 28.578,265.564 43.333 C 265.844 43.975,266.226 44.790,266.411 45.144 C 266.596 45.498,266.870 46.173,267.018 46.644 C 267.167 47.115,267.749 48.755,268.311 50.289 C 268.874 51.823,269.636 54.373,270.005 55.955 C 270.374 57.538,270.819 59.433,270.992 60.167 C 272.414 66.170,273.035 81.890,272.040 86.667 C 271.829 87.675,271.517 89.475,271.346 90.667 C 270.620 95.725,268.657 102.570,266.797 106.532 C 266.359 107.467,266.000 108.343,266.000 108.480 C 266.000 108.618,265.175 110.433,264.167 112.515 C 263.158 114.596,262.333 116.532,262.333 116.816 C 262.333 117.281,266.573 117.334,303.917 117.341 C 349.353 117.350,346.283 117.233,351.592 119.154 C 353.113 119.704,356.390 121.330,356.667 121.672 C 356.758 121.785,357.508 122.342,358.333 122.909 C 361.038 124.770,364.507 128.790,366.113 131.924 C 366.557 132.791,367.163 133.950,367.458 134.500 C 367.754 135.050,367.997 135.732,367.998 136.017 C 367.999 136.301,368.141 136.676,368.314 136.850 C 368.925 137.465,369.693 142.372,369.708 145.749 C 369.743 153.737,366.553 161.045,360.565 166.693 L 358.240 168.887 360.911 171.527 C 363.240 173.828,366.667 178.414,366.667 179.230 C 366.667 179.384,366.938 180.033,367.269 180.672 C 369.384 184.753,370.316 192.240,369.336 197.270 C 368.932 199.342,367.729 202.980,367.282 203.483 C 367.127 203.657,367.000 204.044,367.000 204.341 C 367.000 206.386,360.758 213.598,356.910 216.000 C 355.882 216.642,354.960 217.357,354.862 217.591 C 354.714 217.939,356.527 220.731,357.292 221.333 C 357.984 221.879,359.543 224.362,360.493 226.432 C 366.438 239.392,362.326 254.008,350.385 262.356 C 347.679 264.248,347.668 264.284,349.327 266.051 C 360.821 278.294,358.024 299.487,343.686 308.785 C 340.858 310.619,338.394 311.773,336.167 312.308 C 335.433 312.485,334.233 312.784,333.500 312.973 C 331.791 313.415,199.803 313.435,196.667 312.995 C 190.572 312.138,188.214 311.689,185.833 310.932 C 185.283 310.757,184.063 310.407,183.121 310.155 C 180.055 309.331,173.520 306.423,169.833 304.241 C 169.467 304.024,168.417 303.401,167.500 302.857 C 160.237 298.543,151.667 290.450,146.500 283.023 L 144.833 280.627 144.426 286.397 C 143.657 297.287,142.388 300.600,136.841 306.202 C 133.843 309.230,128.741 312.333,126.763 312.333 C 126.417 312.333,125.946 312.521,125.717 312.750 C 125.020 313.447,89.068 313.541,86.960 312.852 C 86.088 312.567,85.124 312.333,84.818 312.333 C 80.918 312.333,72.850 305.382,70.075 299.629 C 67.091 293.444,67.333 300.317,67.338 221.934 C 67.343 149.429,67.327 150.363,68.647 147.500 C 68.817 147.133,69.216 146.233,69.535 145.500 C 72.533 138.602,78.377 133.416,85.618 131.226 C 88.756 130.277,119.776 129.957,124.080 130.829 C 132.680 132.572,140.609 139.528,143.013 147.440 C 143.556 149.227,143.905 149.239,147.225 147.589 C 153.311 144.566,159.872 139.047,169.328 129.000 C 171.116 127.100,176.931 119.944,179.351 116.667 C 181.703 113.481,187.845 104.064,189.570 101.000 C 189.828 100.542,190.474 99.417,191.005 98.500 C 191.975 96.828,199.354 82.042,200.156 80.167 C 200.391 79.617,200.811 78.567,201.090 77.833 C 201.369 77.100,202.054 75.375,202.612 74.000 C 206.390 64.693,208.458 57.359,209.026 51.253 C 209.192 49.468,209.476 47.368,209.656 46.587 C 209.836 45.806,209.991 44.342,210.000 43.333 C 210.009 42.325,210.172 40.825,210.363 40.000 C 210.554 39.175,210.844 37.600,211.008 36.500 C 211.409 33.806,212.122 30.767,212.422 30.467 C 212.557 30.332,212.667 29.965,212.667 29.650 C 212.667 25.477,220.651 17.444,225.667 16.569 C 228.305 16.109,235.141 16.364,237.759 17.020 M227.500 27.304 C 224.239 28.794,220.697 38.117,220.659 45.309 C 220.654 46.147,220.494 47.508,220.303 48.333 C 220.112 49.158,219.823 51.183,219.661 52.833 C 219.329 56.212,218.571 60.754,217.963 63.000 C 217.498 64.720,214.897 72.753,214.402 74.000 C 214.220 74.458,213.665 75.883,213.168 77.167 C 212.671 78.450,212.071 79.950,211.834 80.500 C 211.597 81.050,211.248 81.875,211.059 82.333 C 210.869 82.792,210.205 84.292,209.582 85.667 C 208.960 87.042,208.091 88.992,207.650 90.000 C 206.154 93.426,202.334 100.783,200.381 104.000 C 199.991 104.642,199.568 105.392,199.441 105.667 C 198.961 106.705,195.187 112.926,193.677 115.167 C 192.813 116.450,191.600 118.250,190.983 119.167 C 189.508 121.356,186.441 125.562,185.359 126.878 C 184.886 127.452,184.125 128.420,183.667 129.028 C 177.703 136.939,165.576 148.762,158.167 153.889 C 155.809 155.521,148.946 159.079,146.754 159.805 C 145.794 160.124,144.926 160.517,144.825 160.679 C 144.313 161.508,144.667 249.516,145.193 252.000 C 147.142 261.216,152.502 274.226,155.355 276.667 C 155.462 276.758,156.492 278.033,157.643 279.500 C 159.571 281.956,164.353 286.913,166.333 288.509 C 168.311 290.102,172.541 293.233,173.000 293.443 C 173.275 293.569,174.025 293.992,174.667 294.383 C 176.325 295.393,180.116 297.330,180.437 297.332 C 180.586 297.333,181.486 297.695,182.437 298.138 C 186.240 299.907,193.322 301.743,198.692 302.351 C 200.471 302.553,226.128 302.642,266.692 302.587 L 331.833 302.500 333.874 301.625 C 346.333 296.282,349.506 281.682,340.198 272.529 C 334.875 267.295,333.509 267.000,314.609 267.000 L 299.488 267.000 298.213 266.134 C 295.138 264.044,295.252 259.561,298.441 257.197 C 299.363 256.513,299.757 256.497,318.941 256.324 L 338.500 256.147 340.554 255.277 C 355.096 249.111,356.124 229.648,342.271 222.766 C 338.010 220.648,338.191 220.667,321.483 220.667 C 306.647 220.667,306.226 220.649,305.015 219.969 C 302.456 218.530,301.667 214.851,303.363 212.260 C 304.777 210.099,303.968 210.184,325.167 209.990 C 345.975 209.800,344.808 209.903,349.000 207.893 C 361.742 201.782,362.030 183.784,349.500 176.644 C 345.812 174.542,346.014 174.564,328.333 174.356 C 312.291 174.168,312.157 174.161,310.969 173.415 C 307.908 171.492,308.045 166.219,311.205 164.355 C 312.338 163.687,312.812 163.667,327.548 163.667 C 342.872 163.667,345.659 163.476,347.667 162.293 C 347.942 162.131,348.467 161.858,348.833 161.686 C 352.140 160.135,355.859 156.487,357.008 153.667 C 357.194 153.208,357.491 152.533,357.668 152.167 C 359.461 148.437,359.139 141.787,356.972 137.782 C 354.666 133.520,351.511 130.891,346.000 128.643 C 345.015 128.241,337.419 128.141,297.105 128.000 L 249.377 127.833 248.328 126.833 C 245.297 123.945,245.544 121.981,249.719 115.751 C 250.939 113.930,252.335 111.704,252.820 110.804 C 253.305 109.903,253.831 108.942,253.989 108.667 C 256.489 104.309,259.311 95.448,260.889 87.000 C 261.792 82.167,261.716 70.515,260.747 65.333 C 259.167 56.886,255.742 46.504,253.323 42.833 C 252.840 42.100,251.753 40.450,250.907 39.167 C 248.004 34.761,242.801 30.475,238.000 28.534 C 237.175 28.200,236.125 27.773,235.667 27.584 C 234.562 27.130,228.348 26.917,227.500 27.304 M89.833 141.650 C 84.414 142.692,80.120 146.856,78.565 152.578 C 77.694 155.781,77.732 288.329,78.605 291.667 C 79.704 295.873,82.788 299.475,87.000 301.473 L 89.167 302.500 105.167 302.599 C 120.867 302.697,121.207 302.685,123.333 301.971 C 128.374 300.277,132.086 296.136,133.166 291.003 C 133.889 287.565,133.926 156.382,133.205 153.000 C 132.162 148.109,128.911 144.202,124.291 142.285 C 122.409 141.504,93.375 140.969,89.833 141.650 " stroke="none" fill="#fbfbfb" fill-rule="evenodd"></path>
        <path id="path2" d="M229.427 16.912 C 230.303 16.981,231.653 16.980,232.427 16.910 C 233.200 16.840,232.483 16.784,230.833 16.785 C 229.183 16.786,228.550 16.843,229.427 16.912 M224.081 17.835 C 216.157 20.885,211.519 29.954,210.442 44.500 C 210.374 45.417,210.083 47.817,209.796 49.833 C 209.508 51.850,209.339 53.950,209.420 54.500 C 209.540 55.315,209.576 55.241,209.617 54.100 C 209.644 53.330,209.816 51.980,209.999 51.100 C 210.182 50.220,210.473 48.075,210.647 46.333 C 212.401 28.704,216.516 20.554,224.954 17.991 C 226.263 17.594,227.333 17.208,227.333 17.134 C 227.333 16.808,226.007 17.094,224.081 17.835 M234.667 17.333 C 234.942 17.511,235.483 17.659,235.870 17.662 C 237.021 17.670,241.457 19.186,244.222 20.516 C 252.002 24.258,257.844 30.299,262.723 39.649 C 263.679 41.482,264.524 42.920,264.599 42.845 C 264.675 42.770,264.050 41.346,263.210 39.682 C 257.243 27.851,248.174 20.164,237.000 17.466 C 234.695 16.910,233.945 16.867,234.667 17.333 M228.750 26.049 C 227.210 26.480,227.291 26.497,231.084 26.528 C 234.373 26.555,234.476 26.306,231.333 25.927 C 230.508 25.827,229.346 25.882,228.750 26.049 M225.166 27.712 C 223.144 29.488,221.562 32.788,221.194 36.000 C 221.099 36.825,221.104 37.200,221.205 36.833 C 222.666 31.491,223.884 29.055,225.794 27.650 C 226.530 27.109,226.957 26.667,226.744 26.667 C 226.531 26.667,225.821 27.137,225.166 27.712 M236.333 27.184 C 238.202 27.773,238.388 27.770,237.333 27.167 C 236.875 26.905,236.125 26.695,235.667 26.701 C 235.075 26.708,235.269 26.849,236.333 27.184 M240.500 28.878 C 246.059 31.711,250.565 36.325,253.961 42.667 C 255.802 46.103,256.299 46.482,254.651 43.193 C 251.467 36.838,246.234 31.237,241.102 28.691 C 239.966 28.128,238.841 27.672,238.602 27.678 C 238.363 27.684,239.217 28.224,240.500 28.878 M220.561 38.127 C 220.436 38.454,220.348 39.196,220.367 39.777 C 220.399 40.806,220.408 40.799,220.708 39.522 C 221.038 38.114,220.936 37.149,220.561 38.127 M219.887 43.167 C 219.591 45.641,219.321 49.345,219.486 48.667 C 219.845 47.194,220.395 42.408,220.271 41.833 C 220.191 41.467,220.019 42.067,219.887 43.167 M264.695 43.730 C 264.679 44.040,264.805 44.380,264.974 44.484 C 265.144 44.589,265.383 45.133,265.506 45.693 C 265.629 46.253,265.939 47.114,266.196 47.606 C 266.453 48.098,266.663 48.737,266.665 49.028 C 266.666 49.318,266.774 49.663,266.905 49.794 C 267.370 50.259,269.754 59.674,270.461 63.841 C 272.197 74.065,271.927 82.560,269.505 93.921 C 268.608 98.130,266.757 104.351,265.986 105.745 C 265.551 106.534,265.567 107.334,266.005 106.667 C 269.950 100.655,272.979 78.976,271.477 67.500 C 270.431 59.497,264.879 40.041,264.695 43.730 M255.667 46.200 C 255.667 46.383,255.796 46.676,255.955 46.850 C 256.113 47.024,256.403 47.617,256.600 48.167 C 256.796 48.717,257.425 50.442,257.997 52.000 C 261.201 60.723,262.169 66.466,262.157 76.667 C 262.145 86.345,261.249 91.914,258.429 99.829 C 255.866 107.024,253.188 112.145,248.319 119.167 C 246.253 122.146,246.730 125.089,249.547 126.739 C 250.490 127.291,345.328 127.883,344.778 127.333 C 344.686 127.242,323.436 127.092,297.556 127.000 C 244.674 126.813,249.063 127.043,247.801 124.385 C 246.913 122.513,247.331 121.068,249.716 117.767 C 252.273 114.228,255.349 108.592,257.322 103.833 C 259.150 99.422,259.221 99.217,260.326 95.157 C 262.380 87.611,263.449 77.221,262.723 71.840 C 262.525 70.370,262.213 67.967,262.029 66.500 C 261.275 60.483,260.077 55.929,257.664 49.912 C 256.390 46.732,255.667 45.389,255.667 46.200 M218.881 52.167 C 218.598 53.882,218.296 57.269,218.465 56.833 C 218.789 56.003,219.405 51.717,219.262 51.299 C 219.173 51.043,219.002 51.433,218.881 52.167 M208.710 57.551 C 208.460 58.679,208.337 59.804,208.435 60.051 C 208.533 60.298,208.626 60.078,208.640 59.561 C 208.655 59.045,208.826 58.325,209.021 57.962 C 209.215 57.598,209.327 56.895,209.269 56.400 C 209.193 55.748,209.039 56.065,208.710 57.551 M217.689 59.752 C 217.434 60.807,217.304 61.749,217.400 61.845 C 217.661 62.105,218.417 59.177,218.275 58.457 C 218.207 58.114,217.944 58.697,217.689 59.752 M206.673 65.036 C 205.868 67.491,204.619 70.925,203.898 72.667 C 203.177 74.408,202.373 76.416,202.113 77.128 C 201.852 77.839,201.347 79.028,200.989 79.769 C 200.631 80.510,200.403 81.181,200.483 81.261 C 200.563 81.341,200.926 80.753,201.289 79.953 C 204.047 73.882,204.612 72.441,206.556 66.500 C 207.216 64.483,207.903 62.511,208.083 62.116 C 208.264 61.722,208.349 61.213,208.273 60.986 C 208.197 60.759,207.477 62.581,206.673 65.036 M216.803 63.581 C 216.604 64.086,216.176 65.325,215.853 66.333 C 215.207 68.351,213.749 72.453,213.306 73.500 C 213.150 73.867,212.731 74.992,212.373 76.000 C 212.016 77.008,211.398 78.658,211.000 79.667 C 210.114 81.913,209.801 83.069,210.278 82.333 C 211.221 80.879,217.464 63.557,217.262 62.953 C 217.209 62.793,217.002 63.075,216.803 63.581 M199.753 82.570 C 199.526 83.055,199.402 83.513,199.476 83.588 C 199.677 83.788,200.395 82.348,200.272 81.992 C 200.214 81.825,199.981 82.085,199.753 82.570 M209.294 83.874 C 208.055 86.865,200.480 101.957,198.941 104.500 C 197.943 106.150,197.020 107.725,196.891 108.000 C 196.761 108.275,195.763 109.850,194.673 111.500 C 193.583 113.150,192.359 115.138,191.953 115.917 C 191.547 116.696,191.096 117.333,190.949 117.333 C 190.803 117.333,190.461 117.764,190.189 118.290 C 189.770 119.101,187.549 122.170,183.105 128.081 C 178.031 134.829,165.732 147.112,160.259 150.897 C 158.985 151.779,157.093 153.105,156.055 153.845 C 153.427 155.717,148.248 158.215,145.411 158.979 C 144.641 159.186,143.857 159.645,143.667 159.999 C 143.191 160.890,143.439 246.457,143.926 249.000 L 144.277 250.833 144.105 249.000 C 143.744 245.153,143.641 161.004,143.996 160.341 C 144.188 159.982,144.980 159.519,145.756 159.311 C 157.220 156.237,176.435 139.104,189.095 120.667 C 196.000 110.611,199.579 104.583,204.645 94.471 C 208.584 86.609,210.090 83.313,209.852 83.075 C 209.764 82.986,209.513 83.346,209.294 83.874 M196.375 89.686 C 194.839 92.797,192.777 96.707,191.792 98.374 C 190.806 100.042,190.000 101.473,190.000 101.556 C 190.000 101.923,190.738 101.200,191.026 100.551 C 191.200 100.156,191.631 99.383,191.982 98.833 C 194.176 95.399,199.814 83.939,199.272 84.015 C 199.214 84.023,197.910 86.575,196.375 89.686 M189.084 103.255 C 188.698 103.942,186.666 107.087,184.569 110.244 C 182.472 113.401,180.923 115.885,181.128 115.763 C 181.508 115.536,182.237 114.616,182.833 113.610 C 183.017 113.301,184.167 111.574,185.389 109.774 C 187.740 106.311,190.095 102.317,189.901 102.123 C 189.837 102.060,189.470 102.569,189.084 103.255 M265.071 108.145 C 264.512 109.370,264.565 109.626,265.192 108.732 C 265.480 108.320,265.662 107.820,265.596 107.620 C 265.529 107.421,265.293 107.657,265.071 108.145 M263.549 111.488 C 263.069 112.502,262.324 113.895,261.893 114.582 C 260.905 116.162,260.620 117.262,261.115 117.583 C 261.327 117.721,280.175 117.924,303.000 118.034 C 325.825 118.145,345.100 118.327,345.833 118.440 C 346.567 118.553,346.267 118.431,345.167 118.170 C 343.496 117.774,336.488 117.693,302.667 117.676 C 279.238 117.665,261.967 117.530,261.692 117.356 C 261.304 117.110,261.539 116.409,262.980 113.510 C 263.949 111.560,264.670 109.892,264.582 109.804 C 264.494 109.716,264.029 110.474,263.549 111.488 M178.660 118.753 C 170.866 129.265,160.644 139.662,152.833 145.023 C 149.968 146.989,144.876 149.667,144.001 149.667 C 143.257 149.667,142.785 149.097,142.479 147.831 C 140.875 141.200,133.293 134.178,125.140 131.772 C 121.748 130.771,91.668 130.695,87.399 131.676 C 80.075 133.361,74.232 137.820,70.697 144.424 C 69.540 146.584,69.443 146.934,70.167 146.333 C 70.442 146.105,70.667 145.694,70.667 145.421 C 70.667 143.270,76.919 136.564,80.897 134.449 C 82.460 133.618,83.318 133.298,87.167 132.115 C 90.100 131.213,120.508 131.177,124.182 132.072 C 131.041 133.742,135.802 137.014,139.377 142.517 C 140.674 144.512,141.886 147.019,142.155 148.261 C 142.573 150.196,143.602 150.534,145.891 149.491 C 147.826 148.610,151.382 146.556,152.333 145.772 C 152.608 145.545,153.674 144.791,154.701 144.096 C 160.272 140.329,168.867 131.751,175.833 123.005 C 178.849 119.219,180.732 116.621,180.575 116.464 C 180.506 116.395,179.644 117.425,178.660 118.753 M348.167 118.904 C 348.533 118.993,348.976 119.200,349.150 119.366 C 349.324 119.531,349.774 119.661,350.150 119.654 C 350.651 119.644,350.534 119.511,349.712 119.154 C 349.095 118.886,348.345 118.684,348.045 118.705 C 347.661 118.733,347.697 118.791,348.167 118.904 M351.000 119.801 C 351.000 119.875,352.087 120.486,353.417 121.158 C 360.249 124.613,365.771 131.223,367.765 138.333 C 368.048 139.342,368.292 139.877,368.306 139.524 C 368.412 137.011,364.747 130.071,361.547 126.723 C 358.539 123.576,351.000 118.628,351.000 119.801 M345.667 127.899 C 351.296 129.924,354.163 132.030,356.697 136.000 C 357.223 136.825,357.652 137.350,357.650 137.167 C 357.637 136.134,355.193 133.070,352.833 131.128 C 350.848 129.494,347.003 127.634,345.734 127.693 C 345.277 127.714,345.264 127.754,345.667 127.899 M358.505 139.897 C 359.739 143.711,359.824 146.841,358.799 150.667 C 358.642 151.255,358.682 151.402,358.936 151.167 C 360.451 149.763,359.876 139.938,358.168 138.064 C 357.950 137.824,358.101 138.649,358.505 139.897 M89.757 140.513 C 85.807 141.235,79.333 145.770,79.333 147.815 C 79.333 148.027,79.162 148.372,78.952 148.582 C 78.742 148.792,78.293 149.748,77.956 150.707 C 77.088 153.172,76.960 291.017,77.824 292.749 C 78.104 293.310,78.333 293.914,78.333 294.091 C 78.333 296.697,85.480 303.099,88.251 302.974 C 88.702 302.953,88.721 302.911,88.333 302.784 C 83.382 301.171,80.052 297.875,78.276 292.833 C 77.349 290.204,77.346 154.076,78.272 151.270 C 79.657 147.071,82.275 144.075,86.316 142.067 L 88.799 140.833 105.816 140.833 C 122.788 140.833,122.838 140.835,124.622 141.594 C 129.219 143.548,132.506 147.391,133.807 152.333 C 134.079 153.368,134.297 153.804,134.307 153.333 C 134.421 147.769,127.946 141.451,121.000 140.349 C 117.734 139.831,92.772 139.961,89.757 140.513 M368.476 145.833 C 368.477 149.341,368.567 150.865,368.710 149.833 C 369.012 147.658,369.013 143.560,368.712 141.667 C 368.566 140.754,368.474 142.386,368.476 145.833 M69.028 148.528 C 68.784 149.353,68.657 150.102,68.746 150.191 C 68.835 150.280,69.099 149.669,69.333 148.833 C 69.567 147.998,69.694 147.249,69.615 147.170 C 69.536 147.091,69.272 147.702,69.028 148.528 M68.216 152.417 C 67.938 154.731,68.003 289.633,68.283 292.000 C 68.402 293.008,68.500 261.621,68.500 222.250 C 68.500 182.879,68.483 150.667,68.463 150.667 C 68.443 150.667,68.332 151.454,68.216 152.417 M357.684 153.451 C 357.236 154.395,356.804 155.300,356.724 155.463 C 356.645 155.626,356.741 155.660,356.937 155.539 C 357.436 155.230,358.774 152.481,358.624 152.072 C 358.556 151.886,358.133 152.507,357.684 153.451 M367.693 152.885 C 367.497 153.590,367.336 154.420,367.335 154.730 C 367.334 155.040,367.200 155.376,367.037 155.477 C 366.874 155.578,366.645 156.041,366.528 156.506 C 366.003 158.599,361.517 164.644,358.809 166.908 C 356.691 168.678,356.807 169.097,360.419 172.730 C 364.234 176.567,366.478 180.252,367.655 184.616 C 367.870 185.413,368.120 185.991,368.209 185.902 C 369.409 184.702,364.128 175.431,360.107 171.675 C 357.185 168.946,357.168 168.811,359.488 166.829 C 363.599 163.316,369.518 153.074,368.199 151.755 C 368.116 151.672,367.888 152.181,367.693 152.885 M354.167 158.513 C 351.574 161.129,349.490 162.443,346.500 163.346 C 345.400 163.677,344.830 163.961,345.234 163.975 C 347.577 164.056,352.911 160.893,355.357 157.972 C 357.373 155.564,356.856 155.799,354.167 158.513 M312.121 164.671 C 308.333 166.448,308.478 171.643,312.362 173.314 C 313.895 173.973,314.559 174.000,329.395 174.007 L 344.833 174.014 347.152 174.832 C 363.463 180.587,363.391 203.928,347.046 209.545 C 345.829 209.963,345.133 210.311,345.500 210.319 C 350.154 210.416,356.568 204.326,359.165 197.346 C 362.106 189.438,355.854 176.656,348.140 174.808 C 347.605 174.680,347.017 174.466,346.833 174.333 C 346.007 173.735,343.706 173.646,329.353 173.660 C 315.020 173.673,313.981 173.635,312.584 173.036 C 309.024 171.510,308.712 167.117,312.025 165.171 C 313.117 164.529,313.815 164.496,328.137 164.419 C 336.370 164.374,343.183 164.262,343.276 164.169 C 343.880 163.564,313.434 164.055,312.121 164.671 M368.491 192.167 C 368.499 197.741,368.521 197.950,368.793 195.113 C 368.965 193.325,368.961 190.837,368.784 189.113 C 368.507 186.412,368.483 186.666,368.491 192.167 M367.692 199.667 C 367.473 200.492,367.078 201.639,366.814 202.217 C 366.550 202.795,366.339 203.470,366.346 203.717 C 366.354 203.964,366.590 203.642,366.872 203.000 C 367.770 200.958,368.379 198.970,368.232 198.562 C 368.154 198.344,367.911 198.842,367.692 199.667 M365.201 205.569 C 363.878 208.342,359.566 212.912,356.083 215.231 C 352.819 217.404,352.645 217.967,354.667 219.794 C 355.400 220.456,356.000 221.082,356.000 221.185 C 356.000 221.288,356.437 221.926,356.972 222.603 C 363.643 231.048,363.508 245.780,356.677 254.833 C 354.491 257.730,348.447 263.000,347.311 263.000 C 346.353 263.000,346.638 264.738,347.776 265.843 C 350.783 268.764,353.128 273.116,354.685 278.667 C 355.082 280.082,355.300 280.511,355.313 279.903 C 355.381 276.747,351.689 269.460,348.074 265.617 C 346.672 264.126,346.782 263.870,349.644 261.961 C 364.152 252.284,366.735 232.116,355.070 219.603 C 353.280 217.683,353.298 217.643,357.102 214.988 C 360.906 212.334,367.649 204.333,366.083 204.333 C 365.922 204.333,365.525 204.889,365.201 205.569 M310.667 210.638 C 305.874 210.847,305.260 211.032,303.869 212.685 C 302.204 214.664,303.015 218.301,305.396 219.533 C 305.946 219.817,306.470 219.974,306.562 219.882 C 306.654 219.791,306.258 219.472,305.683 219.175 C 302.816 217.693,302.547 213.993,305.158 211.945 L 306.149 211.167 324.881 211.000 C 335.183 210.908,343.706 210.739,343.821 210.623 C 344.084 210.360,316.750 210.372,310.667 210.638 M322.833 220.319 C 331.633 220.419,339.133 220.635,339.500 220.799 C 340.061 221.051,340.098 221.024,339.734 220.632 C 339.375 220.246,336.524 220.164,323.067 220.153 L 306.833 220.139 322.833 220.319 M341.441 221.484 C 344.454 222.558,348.231 225.810,350.156 228.987 C 356.574 239.578,350.733 253.738,338.833 256.438 C 338.362 256.545,338.448 256.601,339.125 256.628 C 340.549 256.685,345.269 254.188,347.117 252.399 C 355.137 244.633,355.379 233.010,347.679 225.324 C 345.543 223.192,342.015 220.986,340.787 221.015 C 340.446 221.023,340.740 221.234,341.441 221.484 M144.376 252.333 C 144.369 252.792,144.571 253.917,144.826 254.833 C 145.426 256.997,145.445 255.727,144.848 253.333 C 144.596 252.325,144.384 251.875,144.376 252.333 M145.358 257.000 C 145.278 258.437,148.365 266.923,150.087 270.000 C 150.651 271.008,151.278 272.133,151.480 272.500 C 151.966 273.384,153.777 276.122,154.014 276.333 C 154.118 276.425,154.561 277.100,155.000 277.833 C 156.696 280.665,162.849 287.306,166.175 289.893 C 168.237 291.498,173.074 294.704,173.216 294.561 C 173.286 294.492,172.479 293.863,171.422 293.165 C 159.772 285.471,150.616 273.400,146.644 260.500 C 145.491 256.755,145.387 256.473,145.358 257.000 M317.985 256.992 C 298.088 257.183,298.820 257.106,297.475 259.159 C 295.857 261.628,297.525 266.333,300.018 266.333 C 300.247 266.333,299.824 265.892,299.078 265.352 C 296.749 263.665,296.481 260.697,298.476 258.702 L 299.677 257.500 318.644 257.333 C 329.077 257.242,337.724 257.054,337.862 256.917 C 337.999 256.779,337.674 256.700,337.139 256.742 C 336.604 256.783,327.985 256.896,317.985 256.992 M316.500 266.659 L 332.167 266.833 334.500 267.796 C 339.911 270.029,344.041 274.574,345.669 280.089 C 346.167 281.778,346.287 281.967,346.308 281.103 C 346.322 280.518,346.183 279.947,346.000 279.833 C 345.817 279.720,345.667 279.389,345.667 279.097 C 345.667 276.649,340.494 270.356,337.005 268.559 C 332.553 266.266,333.127 266.325,316.178 266.409 L 300.833 266.484 316.500 266.659 M143.556 278.889 C 143.433 279.011,143.366 281.899,143.405 285.306 L 143.477 291.500 143.655 285.500 C 143.826 279.732,143.859 279.504,144.500 279.614 C 144.867 279.676,145.220 279.875,145.286 280.055 C 146.117 282.335,154.601 292.034,159.000 295.732 C 163.838 299.800,172.542 305.693,171.043 303.885 C 170.791 303.582,170.453 303.333,170.292 303.333 C 169.028 303.333,160.064 296.361,155.507 291.833 C 151.339 287.691,151.410 287.775,147.523 282.522 C 144.893 278.968,144.154 278.291,143.556 278.889 M355.268 285.500 C 355.016 291.784,353.893 295.353,350.621 300.267 C 350.096 301.055,349.667 301.766,349.667 301.848 C 349.667 301.995,348.759 303.090,347.498 304.464 C 345.104 307.072,336.901 311.627,334.500 311.682 C 334.133 311.690,333.383 311.916,332.833 312.183 C 331.688 312.740,332.095 312.705,335.167 311.980 C 347.288 309.120,357.410 294.777,355.735 282.833 C 355.478 280.994,355.440 281.209,355.268 285.500 M346.333 284.869 C 346.333 292.866,340.551 300.502,332.833 302.697 L 331.833 302.982 332.833 302.856 C 337.876 302.220,343.612 296.887,345.760 290.837 C 346.341 289.199,346.972 282.667,346.548 282.667 C 346.430 282.667,346.333 283.658,346.333 284.869 M134.053 290.449 C 133.649 295.108,129.473 300.366,124.698 302.227 C 123.672 302.626,123.079 302.964,123.380 302.977 C 126.387 303.106,132.658 297.431,133.529 293.793 C 133.655 293.265,133.898 292.656,134.069 292.438 C 134.239 292.221,134.318 291.546,134.243 290.938 C 134.168 290.331,134.083 290.110,134.053 290.449 M142.750 293.639 C 142.521 294.382,142.333 295.131,142.333 295.305 C 142.333 295.866,140.288 300.058,139.132 301.864 C 137.642 304.194,134.996 306.764,132.333 308.467 C 130.242 309.805,129.606 310.137,127.540 310.971 C 126.068 311.565,126.672 311.702,128.297 311.142 C 134.960 308.846,144.240 297.492,143.275 292.816 C 143.216 292.526,142.979 292.897,142.750 293.639 M68.699 294.167 C 68.373 299.053,77.298 309.136,83.833 311.264 C 87.647 312.506,88.671 312.773,88.867 312.577 C 88.976 312.468,88.413 312.209,87.616 312.001 C 81.259 310.341,76.368 307.148,72.857 302.366 C 71.604 300.659,69.677 296.993,69.652 296.269 C 69.632 295.714,68.728 293.720,68.699 294.167 M173.993 295.158 C 175.256 296.681,188.610 302.074,190.863 301.971 C 191.213 301.955,190.300 301.599,188.833 301.180 C 185.056 300.100,181.282 298.589,177.176 296.512 C 175.224 295.525,173.792 294.915,173.993 295.158 M192.333 302.346 C 192.792 302.544,194.142 302.765,195.333 302.837 C 197.223 302.950,197.309 302.932,196.000 302.697 C 192.442 302.059,191.454 301.964,192.333 302.346 M89.929 303.393 C 90.706 303.702,121.402 303.719,121.885 303.412 C 122.096 303.277,114.864 303.167,105.814 303.167 C 96.763 303.167,89.615 303.269,89.929 303.393 M199.711 303.415 C 200.598 303.743,329.723 303.748,330.609 303.420 C 330.985 303.281,301.536 303.167,265.167 303.167 C 228.797 303.167,199.342 303.278,199.711 303.415 M172.186 304.823 C 172.542 305.092,172.983 305.312,173.167 305.312 C 173.350 305.312,173.209 305.092,172.853 304.823 C 172.497 304.554,172.056 304.333,171.873 304.333 C 171.689 304.333,171.830 304.554,172.186 304.823 M173.667 305.469 C 173.667 306.338,190.783 312.019,192.083 311.582 C 192.312 311.505,191.675 311.254,190.667 311.025 C 186.073 309.979,179.966 307.954,176.424 306.302 C 174.479 305.395,173.667 305.149,173.667 305.469 M123.667 312.073 C 123.025 312.264,122.675 312.483,122.888 312.561 C 123.102 312.639,124.002 312.481,124.888 312.208 C 125.908 311.895,126.194 311.716,125.667 311.720 C 125.208 311.724,124.308 311.883,123.667 312.073 M194.000 311.976 C 197.109 312.546,198.884 312.706,198.053 312.341 C 197.624 312.153,196.199 311.932,194.886 311.850 C 192.945 311.728,192.780 311.752,194.000 311.976 M97.940 312.916 C 102.398 312.969,109.598 312.969,113.940 312.916 C 118.281 312.864,114.633 312.821,105.833 312.821 C 97.033 312.821,93.481 312.864,97.940 312.916 M232.723 312.917 C 250.630 312.964,280.030 312.964,298.057 312.917 C 316.084 312.869,301.433 312.830,265.500 312.830 C 229.567 312.830,214.817 312.869,232.723 312.917 " stroke="none" fill="#747474" fill-rule="evenodd"></path>
        <path id="path3" d="M225.667 16.569 C 220.651 17.444,212.667 25.477,212.667 29.650 C 212.667 29.965,212.557 30.332,212.422 30.467 C 212.122 30.767,211.409 33.806,211.008 36.500 C 210.844 37.600,210.554 39.175,210.363 40.000 C 210.172 40.825,210.009 42.325,210.000 43.333 C 209.991 44.342,209.836 45.806,209.656 46.587 C 209.476 47.368,209.192 49.468,209.026 51.253 C 208.458 57.359,206.390 64.693,202.612 74.000 C 202.054 75.375,201.369 77.100,201.090 77.833 C 200.811 78.567,200.391 79.617,200.156 80.167 C 199.354 82.042,191.975 96.828,191.005 98.500 C 190.474 99.417,189.828 100.542,189.570 101.000 C 187.845 104.064,181.703 113.481,179.351 116.667 C 176.931 119.944,171.116 127.100,169.328 129.000 C 159.872 139.047,153.311 144.566,147.225 147.589 C 143.905 149.239,143.556 149.227,143.013 147.440 C 140.609 139.528,132.680 132.572,124.080 130.829 C 119.776 129.957,88.756 130.277,85.618 131.226 C 78.377 133.416,72.533 138.602,69.535 145.500 C 69.216 146.233,68.817 147.133,68.647 147.500 C 67.327 150.363,67.343 149.429,67.338 221.934 C 67.333 300.317,67.091 293.444,70.075 299.629 C 72.850 305.382,80.918 312.333,84.818 312.333 C 85.124 312.333,86.088 312.567,86.960 312.852 C 89.068 313.541,125.020 313.447,125.717 312.750 C 125.946 312.521,126.417 312.333,126.763 312.333 C 128.741 312.333,133.843 309.230,136.841 306.202 C 142.388 300.600,143.657 297.287,144.426 286.397 L 144.833 280.627 146.500 283.023 C 151.667 290.450,160.237 298.543,167.500 302.857 C 168.417 303.401,169.467 304.024,169.833 304.241 C 173.520 306.423,180.055 309.331,183.121 310.155 C 184.063 310.407,185.283 310.757,185.833 310.932 C 188.214 311.689,190.572 312.138,196.667 312.995 C 199.803 313.435,331.791 313.415,333.500 312.973 C 334.233 312.784,335.433 312.485,336.167 312.308 C 338.394 311.773,340.858 310.619,343.686 308.785 C 358.024 299.487,360.821 278.294,349.327 266.051 C 347.668 264.284,347.679 264.248,350.385 262.356 C 362.326 254.008,366.438 239.392,360.493 226.432 C 359.543 224.362,357.984 221.879,357.292 221.333 C 356.527 220.731,354.714 217.939,354.862 217.591 C 354.960 217.357,355.882 216.642,356.910 216.000 C 360.758 213.598,367.000 206.386,367.000 204.341 C 367.000 204.044,367.127 203.657,367.282 203.483 C 367.729 202.980,368.932 199.342,369.336 197.270 C 370.316 192.240,369.384 184.753,367.269 180.672 C 366.938 180.033,366.667 179.384,366.667 179.230 C 366.667 178.414,363.240 173.828,360.911 171.527 L 358.240 168.887 360.565 166.693 C 366.553 161.045,369.743 153.737,369.708 145.749 C 369.693 142.372,368.925 137.465,368.314 136.850 C 368.141 136.676,367.999 136.301,367.998 136.017 C 367.997 135.732,367.754 135.050,367.458 134.500 C 367.163 133.950,366.557 132.791,366.113 131.924 C 364.507 128.790,361.038 124.770,358.333 122.909 C 357.508 122.342,356.758 121.785,356.667 121.672 C 356.390 121.330,353.113 119.704,351.592 119.154 C 346.283 117.233,349.353 117.350,303.917 117.341 C 266.573 117.334,262.333 117.281,262.333 116.816 C 262.333 116.532,263.158 114.596,264.167 112.515 C 265.175 110.433,266.000 108.618,266.000 108.480 C 266.000 108.343,266.359 107.467,266.797 106.532 C 268.657 102.570,270.620 95.725,271.346 90.667 C 271.517 89.475,271.829 87.675,272.040 86.667 C 273.035 81.890,272.414 66.170,270.992 60.167 C 270.819 59.433,270.374 57.538,270.005 55.955 C 269.636 54.373,268.874 51.823,268.311 50.289 C 267.749 48.755,267.167 47.115,267.018 46.644 C 266.870 46.173,266.596 45.498,266.411 45.144 C 266.226 44.790,265.844 43.975,265.564 43.333 C 257.125 24.032,241.806 13.755,225.667 16.569 M237.667 17.516 C 251.813 21.304,261.131 31.383,267.544 49.833 C 274.821 70.767,273.256 93.366,263.142 113.426 C 261.851 115.986,261.452 117.130,261.750 117.412 C 261.796 117.456,280.658 117.577,303.667 117.681 C 345.440 117.871,347.548 117.931,349.833 119.002 C 350.200 119.174,351.286 119.616,352.247 119.985 C 370.330 126.918,374.820 151.214,360.706 165.763 L 357.541 169.025 360.366 171.787 C 373.981 185.100,371.814 205.270,355.583 216.290 C 353.720 217.556,353.676 217.794,355.023 219.333 C 366.950 232.963,364.536 252.282,349.671 262.164 C 346.925 263.989,346.900 264.102,348.758 266.214 C 362.862 282.248,355.151 307.044,334.425 312.304 C 330.691 313.252,201.873 313.416,195.848 312.480 C 181.630 310.273,170.962 305.617,160.029 296.847 C 155.155 292.937,147.782 284.668,145.146 280.156 C 144.341 278.777,144.000 280.004,144.000 284.278 C 144.000 299.892,137.582 309.151,124.452 312.481 C 120.872 313.389,90.252 313.240,86.575 312.297 C 76.770 309.783,69.804 302.130,68.153 292.060 C 67.436 287.690,67.445 156.200,68.162 152.000 C 69.918 141.713,76.585 134.367,86.667 131.608 C 90.207 130.640,119.468 130.396,123.667 131.300 C 129.873 132.636,135.242 135.974,138.840 140.735 C 140.478 142.902,142.667 147.070,142.667 148.022 C 142.667 151.248,151.024 147.075,159.320 139.708 C 163.939 135.606,164.383 135.173,167.577 131.667 C 176.048 122.368,178.864 118.700,186.923 106.475 C 189.676 102.300,196.875 88.809,199.099 83.659 C 199.612 82.472,200.162 81.259,200.322 80.964 C 201.164 79.415,205.458 68.217,206.765 64.167 C 208.343 59.271,208.943 56.208,209.832 48.500 C 211.538 33.715,212.624 29.391,215.921 24.255 C 220.239 17.528,228.338 15.018,237.667 17.516 M228.188 26.708 C 223.354 27.841,221.233 33.513,219.668 49.500 C 219.488 51.333,219.194 53.733,219.015 54.833 C 218.835 55.933,218.591 57.508,218.473 58.333 C 217.768 63.243,214.598 72.593,209.657 84.333 C 207.567 89.302,202.960 98.448,198.829 105.833 C 196.108 110.698,189.924 119.964,186.000 125.058 C 184.442 127.081,182.947 129.058,182.679 129.451 C 180.306 132.933,170.283 143.346,164.818 148.007 C 158.416 153.468,150.027 158.494,145.597 159.522 C 143.897 159.917,143.964 157.891,144.088 205.385 L 144.206 250.167 145.092 254.000 C 148.049 266.801,152.949 275.920,161.625 284.774 C 172.397 295.765,185.337 301.769,200.845 302.971 C 207.313 303.472,326.591 303.476,330.193 302.975 C 349.888 300.236,351.698 273.321,332.589 267.330 C 330.640 266.719,329.470 266.675,315.185 266.671 L 299.869 266.667 298.601 265.788 C 295.694 263.773,295.964 259.130,299.086 257.424 C 300.074 256.884,301.820 256.819,319.500 256.667 C 341.401 256.478,340.235 256.618,344.600 253.646 C 356.905 245.268,354.796 227.258,340.833 221.468 L 338.500 220.500 322.333 220.333 C 307.252 220.178,306.097 220.124,305.129 219.538 C 302.061 217.681,302.242 212.830,305.443 211.078 C 306.400 210.555,308.334 210.482,325.833 210.311 C 347.479 210.099,346.739 210.179,350.701 207.619 C 362.184 200.196,362.195 184.144,350.721 176.728 C 346.590 174.058,346.122 174.000,328.685 174.000 C 314.023 174.000,313.247 173.969,312.015 173.341 C 308.453 171.524,308.290 166.408,311.737 164.636 C 312.897 164.039,313.892 163.999,327.903 163.980 C 345.180 163.957,346.364 163.831,350.092 161.621 C 362.888 154.037,362.034 134.630,348.667 129.203 C 347.842 128.868,346.792 128.423,346.333 128.214 C 345.727 127.937,332.503 127.788,297.833 127.667 L 250.167 127.500 249.041 126.697 C 246.379 124.799,246.142 121.991,248.372 118.781 C 251.873 113.744,254.148 109.825,255.791 106.000 C 263.938 87.031,264.396 70.309,257.312 50.500 C 252.409 36.790,243.508 28.109,232.893 26.683 C 229.949 26.288,229.979 26.288,228.188 26.708 M235.667 27.584 C 236.125 27.773,237.175 28.200,238.000 28.534 C 242.801 30.475,248.004 34.761,250.907 39.167 C 251.753 40.450,252.840 42.100,253.323 42.833 C 255.742 46.504,259.167 56.886,260.747 65.333 C 261.716 70.515,261.792 82.167,260.889 87.000 C 259.311 95.448,256.489 104.309,253.989 108.667 C 253.831 108.942,253.305 109.903,252.820 110.804 C 252.335 111.704,250.939 113.930,249.719 115.751 C 245.544 121.981,245.297 123.945,248.328 126.833 L 249.377 127.833 297.105 128.000 C 337.419 128.141,345.015 128.241,346.000 128.643 C 351.511 130.891,354.666 133.520,356.972 137.782 C 359.139 141.787,359.461 148.437,357.668 152.167 C 357.491 152.533,357.194 153.208,357.008 153.667 C 355.859 156.487,352.140 160.135,348.833 161.686 C 348.467 161.858,347.942 162.131,347.667 162.293 C 345.659 163.476,342.872 163.667,327.548 163.667 C 312.812 163.667,312.338 163.687,311.205 164.355 C 308.045 166.219,307.908 171.492,310.969 173.415 C 312.157 174.161,312.291 174.168,328.333 174.356 C 346.014 174.564,345.812 174.542,349.500 176.644 C 356.340 180.541,360.069 188.372,358.488 195.522 C 357.023 202.149,352.851 206.657,345.667 209.373 C 344.769 209.712,340.041 209.854,325.167 209.990 C 303.968 210.184,304.777 210.099,303.363 212.260 C 301.667 214.851,302.456 218.530,305.015 219.969 C 306.226 220.649,306.647 220.667,321.483 220.667 C 338.191 220.667,338.010 220.648,342.271 222.766 C 356.124 229.648,355.096 249.111,340.554 255.277 L 338.500 256.147 318.941 256.324 C 299.757 256.497,299.363 256.513,298.441 257.197 C 295.252 259.561,295.138 264.044,298.213 266.134 L 299.488 267.000 314.609 267.000 C 333.509 267.000,334.875 267.295,340.198 272.529 C 349.506 281.682,346.333 296.282,333.874 301.625 L 331.833 302.500 266.692 302.587 C 226.128 302.642,200.471 302.553,198.692 302.351 C 193.322 301.743,186.240 299.907,182.437 298.138 C 181.486 297.695,180.586 297.333,180.437 297.332 C 180.116 297.330,176.325 295.393,174.667 294.383 C 174.025 293.992,173.275 293.569,173.000 293.443 C 172.541 293.233,168.311 290.102,166.333 288.509 C 164.353 286.913,159.571 281.956,157.643 279.500 C 156.492 278.033,155.462 276.758,155.355 276.667 C 152.502 274.226,147.142 261.216,145.193 252.000 C 144.667 249.516,144.313 161.508,144.825 160.679 C 144.926 160.517,145.794 160.124,146.754 159.805 C 148.946 159.079,155.809 155.521,158.167 153.889 C 165.576 148.762,177.703 136.939,183.667 129.028 C 184.125 128.420,184.886 127.452,185.359 126.878 C 186.441 125.562,189.508 121.356,190.983 119.167 C 191.600 118.250,192.813 116.450,193.677 115.167 C 195.187 112.926,198.961 106.705,199.441 105.667 C 199.568 105.392,199.991 104.642,200.381 104.000 C 202.334 100.783,206.154 93.426,207.650 90.000 C 208.091 88.992,208.960 87.042,209.582 85.667 C 210.205 84.292,210.869 82.792,211.059 82.333 C 211.248 81.875,211.597 81.050,211.834 80.500 C 212.071 79.950,212.671 78.450,213.168 77.167 C 213.665 75.883,214.220 74.458,214.402 74.000 C 214.897 72.753,217.498 64.720,217.963 63.000 C 218.571 60.754,219.329 56.212,219.661 52.833 C 219.823 51.183,220.112 49.158,220.303 48.333 C 220.494 47.508,220.654 46.147,220.659 45.309 C 220.697 38.117,224.239 28.794,227.500 27.304 C 228.348 26.917,234.562 27.130,235.667 27.584 M89.916 141.012 C 84.501 141.923,79.839 146.318,78.204 152.051 C 77.367 154.987,77.383 289.090,78.221 292.145 C 79.828 298.002,84.381 301.966,90.667 302.979 C 93.491 303.434,118.137 303.439,121.000 302.985 C 127.242 301.994,131.745 298.138,133.479 292.300 C 134.251 289.700,134.268 154.427,133.497 151.833 C 131.799 146.126,127.143 141.921,121.500 140.998 C 119.138 140.611,92.224 140.623,89.916 141.012 M124.291 142.285 C 128.911 144.202,132.162 148.109,133.205 153.000 C 133.926 156.382,133.889 287.565,133.166 291.003 C 132.086 296.136,128.374 300.277,123.333 301.971 C 121.207 302.685,120.867 302.697,105.167 302.599 L 89.167 302.500 87.000 301.473 C 82.788 299.475,79.704 295.873,78.605 291.667 C 77.732 288.329,77.694 155.781,78.565 152.578 C 80.120 146.856,84.414 142.692,89.833 141.650 C 93.375 140.969,122.409 141.504,124.291 142.285 " stroke="none" fill="#9d9d9d" fill-rule="evenodd"></path>
        <path id="path4" d="M219.411 50.000 C 219.411 50.642,219.479 50.904,219.563 50.583 C 219.647 50.262,219.647 49.737,219.563 49.417 C 219.479 49.096,219.411 49.358,219.411 50.000 M262.077 81.333 C 262.077 81.975,262.146 82.237,262.230 81.917 C 262.314 81.596,262.314 81.071,262.230 80.750 C 262.146 80.429,262.077 80.692,262.077 81.333 M360.833 126.000 C 361.549 126.733,362.210 127.333,362.302 127.333 C 362.394 127.333,361.883 126.733,361.167 126.000 C 360.451 125.267,359.790 124.667,359.698 124.667 C 359.606 124.667,360.117 125.267,360.833 126.000 M171.146 127.750 L 170.167 128.833 171.250 127.854 C 171.846 127.316,172.333 126.828,172.333 126.771 C 172.333 126.513,172.058 126.740,171.146 127.750 M273.917 127.583 C 286.429 127.632,306.904 127.632,319.417 127.583 C 331.929 127.535,321.692 127.495,296.667 127.495 C 271.642 127.495,261.404 127.535,273.917 127.583 M168.333 130.833 C 167.524 131.658,166.936 132.333,167.028 132.333 C 167.120 132.333,167.857 131.658,168.667 130.833 C 169.476 130.008,170.064 129.333,169.972 129.333 C 169.880 129.333,169.143 130.008,168.333 130.833 M98.750 130.916 C 102.371 130.970,108.296 130.970,111.917 130.916 C 115.537 130.862,112.575 130.818,105.333 130.818 C 98.092 130.818,95.129 130.862,98.750 130.916 M179.146 133.417 L 178.167 134.500 179.250 133.521 C 179.846 132.983,180.333 132.495,180.333 132.438 C 180.333 132.180,180.058 132.407,179.146 133.417 M176.649 136.250 L 175.500 137.500 176.750 136.351 C 177.913 135.282,178.153 135.000,177.899 135.000 C 177.843 135.000,177.281 135.563,176.649 136.250 M160.479 138.750 L 159.500 139.833 160.583 138.854 C 161.179 138.316,161.667 137.828,161.667 137.771 C 161.667 137.513,161.392 137.740,160.479 138.750 M172.649 140.583 L 171.500 141.833 172.750 140.685 C 173.913 139.615,174.153 139.333,173.899 139.333 C 173.843 139.333,173.281 139.896,172.649 140.583 M125.361 142.101 C 125.438 142.156,125.950 142.465,126.500 142.787 L 127.500 143.373 126.713 142.686 C 126.280 142.309,125.768 142.000,125.574 142.000 C 125.381 142.000,125.285 142.045,125.361 142.101 M369.103 145.833 C 369.105 146.933,369.167 147.343,369.242 146.744 C 369.316 146.145,369.314 145.245,369.238 144.744 C 369.162 144.243,369.101 144.733,369.103 145.833 M129.000 144.438 C 129.000 144.495,129.487 144.983,130.083 145.521 L 131.167 146.500 130.188 145.417 C 129.275 144.407,129.000 144.180,129.000 144.438 M167.151 145.750 L 165.833 147.167 167.250 145.849 C 168.567 144.624,168.820 144.333,168.568 144.333 C 168.513 144.333,167.876 144.971,167.151 145.750 M359.417 145.833 C 359.421 146.567,359.489 146.827,359.569 146.413 C 359.649 145.998,359.646 145.398,359.562 145.079 C 359.479 144.761,359.414 145.100,359.417 145.833 M67.830 222.000 C 67.830 259.492,67.869 274.829,67.917 256.083 C 67.964 237.338,67.964 206.663,67.917 187.917 C 67.869 169.171,67.830 184.508,67.830 222.000 M134.163 222.000 C 134.163 259.492,134.202 274.829,134.250 256.083 C 134.298 237.338,134.298 206.663,134.250 187.917 C 134.202 169.171,134.163 184.508,134.163 222.000 M353.146 159.417 L 352.167 160.500 353.250 159.521 C 354.260 158.608,354.487 158.333,354.229 158.333 C 354.172 158.333,353.684 158.821,353.146 159.417 M143.828 202.833 C 143.828 226.117,143.868 235.593,143.917 223.891 C 143.965 212.189,143.965 193.139,143.917 181.557 C 143.868 169.976,143.828 179.550,143.828 202.833 M358.479 167.750 L 357.500 168.833 358.583 167.854 C 359.593 166.942,359.820 166.667,359.562 166.667 C 359.505 166.667,359.017 167.154,358.479 167.750 M369.100 192.000 C 369.100 193.008,369.162 193.421,369.239 192.917 C 369.315 192.412,369.315 191.588,369.239 191.083 C 369.162 190.579,369.100 190.992,369.100 192.000 M308.917 210.580 C 310.063 210.645,311.938 210.645,313.083 210.580 C 314.229 210.515,313.292 210.462,311.000 210.462 C 308.708 210.462,307.771 210.515,308.917 210.580 M339.750 210.563 C 340.071 210.647,340.596 210.647,340.917 210.563 C 341.237 210.479,340.975 210.411,340.333 210.411 C 339.692 210.411,339.429 210.479,339.750 210.563 M341.667 221.833 C 342.125 222.095,342.650 222.310,342.833 222.310 C 343.017 222.310,342.792 222.095,342.333 221.833 C 341.875 221.571,341.350 221.357,341.167 221.357 C 340.983 221.357,341.208 221.571,341.667 221.833 M362.457 238.667 C 362.457 240.592,362.512 241.379,362.579 240.417 C 362.646 239.454,362.646 237.879,362.579 236.917 C 362.512 235.954,362.457 236.742,362.457 238.667 M352.773 238.333 C 352.773 239.525,352.834 240.012,352.908 239.417 C 352.982 238.821,352.982 237.846,352.908 237.250 C 352.834 236.654,352.773 237.142,352.773 238.333 M354.322 258.250 L 352.500 260.167 354.417 258.345 C 356.197 256.652,356.486 256.333,356.239 256.333 C 356.187 256.333,355.324 257.196,354.322 258.250 M309.917 256.916 C 314.729 256.968,322.604 256.968,327.417 256.916 C 332.229 256.864,328.292 256.822,318.667 256.822 C 309.042 256.822,305.104 256.864,309.917 256.916 M340.667 272.104 C 340.667 272.162,341.154 272.649,341.750 273.188 L 342.833 274.167 341.854 273.083 C 340.942 272.074,340.667 271.847,340.667 272.104 M143.889 279.556 C 143.767 279.678,143.696 282.040,143.733 284.806 L 143.799 289.833 143.983 284.667 C 144.187 278.922,144.193 279.251,143.889 279.556 M161.833 285.333 C 163.844 287.350,165.564 289.000,165.655 289.000 C 165.747 289.000,164.177 287.350,162.167 285.333 C 160.156 283.317,158.436 281.667,158.345 281.667 C 158.253 281.667,159.823 283.317,161.833 285.333 M346.118 284.833 C 346.117 286.483,346.174 287.200,346.244 286.427 C 346.313 285.653,346.314 284.303,346.245 283.427 C 346.177 282.550,346.119 283.183,346.118 284.833 M157.333 294.438 C 157.333 294.495,157.821 294.983,158.417 295.521 L 159.500 296.500 158.521 295.417 C 157.608 294.407,157.333 294.180,157.333 294.438 M340.667 297.833 C 339.857 298.658,339.270 299.333,339.361 299.333 C 339.453 299.333,340.190 298.658,341.000 297.833 C 341.810 297.008,342.397 296.333,342.305 296.333 C 342.214 296.333,341.476 297.008,340.667 297.833 M197.750 302.896 C 198.071 302.980,198.596 302.980,198.917 302.896 C 199.237 302.813,198.975 302.744,198.333 302.744 C 197.692 302.744,197.429 302.813,197.750 302.896 M201.583 303.235 C 201.996 303.315,202.671 303.315,203.083 303.235 C 203.496 303.156,203.158 303.091,202.333 303.091 C 201.508 303.091,201.171 303.156,201.583 303.235 M74.833 305.667 C 75.549 306.400,76.210 307.000,76.302 307.000 C 76.394 307.000,75.883 306.400,75.167 305.667 C 74.451 304.933,73.790 304.333,73.698 304.333 C 73.606 304.333,74.117 304.933,74.833 305.667 M136.649 305.583 L 135.500 306.833 136.750 305.685 C 137.913 304.615,138.153 304.333,137.899 304.333 C 137.843 304.333,137.281 304.896,136.649 305.583 M198.750 312.896 C 199.071 312.980,199.596 312.980,199.917 312.896 C 200.237 312.813,199.975 312.744,199.333 312.744 C 198.692 312.744,198.429 312.813,198.750 312.896 " stroke="none" fill="#7c7c7c" fill-rule="evenodd"></path>
    </g>
</svg>